G04 EAGLE Gerber X2 export*
%TF.Part,Single*%
%TF.FileFunction,Soldermask,Top*%
%TF.FilePolarity,Negative*%
%TF.GenerationSoftware,Autodesk,EAGLE,8.6.0*%
%TF.CreationDate,2018-02-22T08:08:00Z*%
G75*
%MOMM*%
%FSLAX34Y34*%
%LPD*%
%AMOC8*
5,1,8,0,0,1.08239X$1,22.5*%
G01*
%ADD10R,1.503200X1.703200*%
%ADD11R,1.703200X1.503200*%
%ADD12R,1.803200X1.503200*%
%ADD13R,0.753200X1.653200*%
%ADD14C,1.403200*%
%ADD15R,1.203200X0.703200*%
%ADD16R,2.703200X2.703200*%
%ADD17R,1.603200X1.603200*%
%ADD18R,1.103200X1.603200*%
%ADD19R,2.003200X1.403200*%
%ADD20R,2.003200X1.703200*%
%ADD21R,3.203200X1.203200*%
%ADD22R,1.703200X1.703200*%
%ADD23C,1.219200*%
%ADD24C,1.727200*%


D10*
X333400Y165100D03*
X352400Y165100D03*
X333400Y190500D03*
X352400Y190500D03*
D11*
X330200Y447700D03*
X330200Y466700D03*
D12*
X368300Y339700D03*
X368300Y320700D03*
X317500Y339700D03*
X317500Y320700D03*
X266700Y339700D03*
X266700Y320700D03*
X342900Y339700D03*
X342900Y320700D03*
D13*
X342900Y289200D03*
X368300Y289200D03*
X342900Y244200D03*
X368300Y244200D03*
X292100Y289200D03*
X317500Y289200D03*
X292100Y244200D03*
X317500Y244200D03*
X241300Y289200D03*
X266700Y289200D03*
X241300Y244200D03*
X266700Y244200D03*
D14*
X135750Y385930D02*
X135750Y398930D01*
X155750Y398930D02*
X155750Y385930D01*
X175750Y385930D02*
X175750Y398930D01*
X195750Y398930D02*
X195750Y385930D01*
X215750Y385930D02*
X215750Y398930D01*
X235750Y398930D02*
X235750Y385930D01*
X255750Y385930D02*
X255750Y398930D01*
X275750Y398930D02*
X275750Y385930D01*
X135750Y545930D02*
X135750Y558930D01*
X155750Y558930D02*
X155750Y545930D01*
X175750Y545930D02*
X175750Y558930D01*
X195750Y558930D02*
X195750Y545930D01*
X215750Y545930D02*
X215750Y558930D01*
X235750Y558930D02*
X235750Y545930D01*
X255750Y545930D02*
X255750Y558930D01*
X275750Y558930D02*
X275750Y545930D01*
D15*
X306900Y209550D03*
X306900Y196850D03*
X306900Y184150D03*
X306900Y171450D03*
X251900Y209550D03*
X251900Y196850D03*
X251900Y184150D03*
X251900Y171450D03*
D16*
X279400Y190500D03*
D17*
X323900Y368300D03*
X361900Y368300D03*
D18*
X228900Y219000D03*
X202900Y219000D03*
X228900Y162000D03*
X202900Y162000D03*
D19*
X107890Y329600D03*
X107890Y304600D03*
X107890Y279600D03*
D20*
X36890Y329600D03*
X36890Y304600D03*
X36890Y279600D03*
D19*
X107890Y254600D03*
D20*
X36890Y254600D03*
D19*
X107890Y229600D03*
X107890Y354600D03*
D20*
X36890Y354600D03*
X36890Y229600D03*
D21*
X157620Y172720D03*
X111620Y172720D03*
D22*
X305200Y498200D03*
X330200Y498200D03*
X355200Y498200D03*
X355200Y543200D03*
X330200Y543200D03*
X305200Y543200D03*
D23*
X315200Y520700D03*
X345200Y520700D03*
D24*
X398780Y469900D02*
X414020Y469900D01*
X414020Y495300D02*
X398780Y495300D01*
X398780Y520700D02*
X414020Y520700D01*
X414020Y546100D02*
X398780Y546100D01*
M02*
