G04 EAGLE Gerber X2 export*
%TF.Part,Single*%
%TF.FileFunction,Soldermask,Top*%
%TF.FilePolarity,Negative*%
%TF.GenerationSoftware,Autodesk,EAGLE,8.6.0*%
%TF.CreationDate,2018-02-21T08:28:56Z*%
G75*
%MOMM*%
%FSLAX34Y34*%
%LPD*%
%AMOC8*
5,1,8,0,0,1.08239X$1,22.5*%
G01*
%ADD10R,1.503200X1.703200*%
%ADD11R,1.653200X0.653200*%
%ADD12C,1.711200*%
%ADD13R,0.603200X1.553200*%
%ADD14R,2.303200X1.803200*%
%ADD15R,2.103200X2.003200*%
%ADD16R,2.403200X3.703200*%
%ADD17R,2.403200X1.403200*%
%ADD18R,1.803200X1.503200*%


D10*
X90780Y93980D03*
X71780Y93980D03*
X90780Y119380D03*
X71780Y119380D03*
D11*
X93120Y51210D03*
X93120Y57710D03*
X93120Y64210D03*
X93120Y70710D03*
X49120Y51210D03*
X49120Y57710D03*
X49120Y64210D03*
X49120Y70710D03*
D12*
X189060Y208280D02*
X204140Y208280D01*
X204140Y188280D02*
X189060Y188280D01*
X189060Y168280D02*
X204140Y168280D01*
X204140Y148280D02*
X189060Y148280D01*
X189060Y228280D02*
X204140Y228280D01*
X204140Y248280D02*
X189060Y248280D01*
X189060Y268280D02*
X204140Y268280D01*
X204140Y288280D02*
X189060Y288280D01*
X59220Y288280D02*
X44140Y288280D01*
X44140Y268280D02*
X59220Y268280D01*
X59220Y248280D02*
X44140Y248280D01*
X44140Y208280D02*
X59220Y208280D01*
X59220Y228280D02*
X44140Y228280D01*
X44140Y188280D02*
X59220Y188280D01*
X59220Y168280D02*
X44140Y168280D01*
X44140Y148280D02*
X59220Y148280D01*
D13*
X154940Y49130D03*
D14*
X185940Y47880D03*
X123940Y47880D03*
D15*
X116940Y22380D03*
X192940Y22380D03*
X166940Y22380D03*
X142940Y22380D03*
D13*
X148440Y49130D03*
X141940Y49130D03*
X167940Y49130D03*
X161440Y49130D03*
D16*
X180860Y96520D03*
D17*
X118860Y96520D03*
X118860Y119520D03*
X118860Y73520D03*
D18*
X22860Y220320D03*
X22860Y201320D03*
X48260Y97180D03*
X48260Y116180D03*
M02*
