G04 EAGLE Gerber X2 export*
%TF.Part,Single*%
%TF.FileFunction,Copper,L1,Top,Mixed*%
%TF.FilePolarity,Positive*%
%TF.GenerationSoftware,Autodesk,EAGLE,8.6.0*%
%TF.CreationDate,2018-02-21T08:28:56Z*%
G75*
%MOMM*%
%FSLAX34Y34*%
%LPD*%
%AMOC8*
5,1,8,0,0,1.08239X$1,22.5*%
G01*
%ADD10R,1.300000X1.500000*%
%ADD11C,0.050800*%
%ADD12R,1.450000X0.450000*%
%ADD13C,1.508000*%
%ADD14C,0.076200*%
%ADD15R,0.400000X1.350000*%
%ADD16R,2.100000X1.600000*%
%ADD17R,1.900000X1.800000*%
%ADD18R,2.200000X3.500000*%
%ADD19R,2.200000X1.200000*%
%ADD20R,1.600000X1.300000*%
%ADD21C,0.609600*%


D10*
X90780Y93980D03*
X71780Y93980D03*
D11*
X60577Y75438D02*
X59335Y75438D01*
X59265Y75440D01*
X59196Y75446D01*
X59127Y75456D01*
X59059Y75469D01*
X58991Y75487D01*
X58925Y75508D01*
X58860Y75533D01*
X58796Y75561D01*
X58734Y75593D01*
X58674Y75628D01*
X58616Y75667D01*
X58561Y75709D01*
X58507Y75754D01*
X58457Y75802D01*
X58409Y75852D01*
X58364Y75906D01*
X58322Y75961D01*
X58283Y76019D01*
X58248Y76079D01*
X58216Y76141D01*
X58188Y76205D01*
X58163Y76270D01*
X58142Y76336D01*
X58124Y76404D01*
X58111Y76472D01*
X58101Y76541D01*
X58095Y76610D01*
X58093Y76680D01*
X58093Y79784D01*
X58095Y79854D01*
X58101Y79923D01*
X58111Y79992D01*
X58124Y80060D01*
X58142Y80128D01*
X58163Y80194D01*
X58188Y80259D01*
X58216Y80323D01*
X58248Y80385D01*
X58283Y80445D01*
X58322Y80503D01*
X58364Y80558D01*
X58409Y80612D01*
X58457Y80662D01*
X58507Y80710D01*
X58561Y80755D01*
X58616Y80797D01*
X58674Y80836D01*
X58734Y80871D01*
X58796Y80903D01*
X58860Y80931D01*
X58925Y80956D01*
X58991Y80977D01*
X59059Y80995D01*
X59127Y81008D01*
X59196Y81018D01*
X59265Y81024D01*
X59335Y81026D01*
X60577Y81026D01*
X62682Y79784D02*
X64234Y81026D01*
X64234Y75438D01*
X62682Y75438D02*
X65786Y75438D01*
X82982Y79784D02*
X84534Y81026D01*
X84534Y75438D01*
X82982Y75438D02*
X86086Y75438D01*
X88596Y76369D02*
X88596Y79163D01*
X88596Y76369D02*
X88598Y76311D01*
X88603Y76252D01*
X88612Y76195D01*
X88625Y76137D01*
X88642Y76081D01*
X88661Y76026D01*
X88685Y75973D01*
X88711Y75920D01*
X88741Y75870D01*
X88774Y75822D01*
X88810Y75776D01*
X88848Y75732D01*
X88890Y75690D01*
X88934Y75652D01*
X88980Y75616D01*
X89028Y75583D01*
X89078Y75553D01*
X89131Y75527D01*
X89184Y75503D01*
X89239Y75484D01*
X89295Y75467D01*
X89353Y75454D01*
X89410Y75445D01*
X89469Y75440D01*
X89527Y75438D01*
X91079Y75438D01*
X91079Y79163D01*
X93782Y81026D02*
X93782Y75438D01*
X93782Y81026D02*
X96266Y81026D01*
X96266Y78542D02*
X93782Y78542D01*
D10*
X90780Y119380D03*
X71780Y119380D03*
D11*
X72035Y131318D02*
X73277Y131318D01*
X72035Y131318D02*
X71965Y131320D01*
X71896Y131326D01*
X71827Y131336D01*
X71759Y131349D01*
X71691Y131367D01*
X71625Y131388D01*
X71560Y131413D01*
X71496Y131441D01*
X71434Y131473D01*
X71374Y131508D01*
X71316Y131547D01*
X71261Y131589D01*
X71207Y131634D01*
X71157Y131682D01*
X71109Y131732D01*
X71064Y131786D01*
X71022Y131841D01*
X70983Y131899D01*
X70948Y131959D01*
X70916Y132021D01*
X70888Y132085D01*
X70863Y132150D01*
X70842Y132216D01*
X70824Y132284D01*
X70811Y132352D01*
X70801Y132421D01*
X70795Y132490D01*
X70793Y132560D01*
X70793Y135664D01*
X70795Y135734D01*
X70801Y135803D01*
X70811Y135872D01*
X70824Y135940D01*
X70842Y136008D01*
X70863Y136074D01*
X70888Y136139D01*
X70916Y136203D01*
X70948Y136265D01*
X70983Y136325D01*
X71022Y136383D01*
X71064Y136438D01*
X71109Y136492D01*
X71157Y136542D01*
X71207Y136590D01*
X71261Y136635D01*
X71316Y136677D01*
X71374Y136716D01*
X71434Y136751D01*
X71496Y136783D01*
X71560Y136811D01*
X71625Y136836D01*
X71691Y136857D01*
X71759Y136875D01*
X71827Y136888D01*
X71896Y136898D01*
X71965Y136904D01*
X72035Y136906D01*
X73277Y136906D01*
X77089Y136906D02*
X77162Y136904D01*
X77235Y136898D01*
X77308Y136889D01*
X77379Y136875D01*
X77451Y136858D01*
X77521Y136838D01*
X77590Y136813D01*
X77657Y136785D01*
X77723Y136754D01*
X77788Y136719D01*
X77850Y136681D01*
X77910Y136639D01*
X77968Y136595D01*
X78024Y136547D01*
X78077Y136497D01*
X78127Y136444D01*
X78175Y136388D01*
X78219Y136330D01*
X78261Y136270D01*
X78299Y136208D01*
X78334Y136143D01*
X78365Y136077D01*
X78393Y136010D01*
X78418Y135941D01*
X78438Y135871D01*
X78455Y135799D01*
X78469Y135728D01*
X78478Y135655D01*
X78484Y135582D01*
X78486Y135509D01*
X77089Y136906D02*
X77005Y136904D01*
X76922Y136898D01*
X76839Y136889D01*
X76757Y136875D01*
X76675Y136858D01*
X76594Y136836D01*
X76514Y136811D01*
X76436Y136783D01*
X76358Y136751D01*
X76283Y136715D01*
X76209Y136676D01*
X76137Y136633D01*
X76067Y136587D01*
X76000Y136538D01*
X75934Y136485D01*
X75872Y136430D01*
X75812Y136372D01*
X75754Y136311D01*
X75700Y136248D01*
X75648Y136182D01*
X75600Y136114D01*
X75555Y136043D01*
X75513Y135971D01*
X75475Y135896D01*
X75440Y135820D01*
X75409Y135743D01*
X75381Y135664D01*
X78020Y134423D02*
X78074Y134476D01*
X78125Y134533D01*
X78173Y134592D01*
X78218Y134653D01*
X78259Y134716D01*
X78298Y134782D01*
X78333Y134849D01*
X78365Y134918D01*
X78393Y134989D01*
X78417Y135060D01*
X78438Y135133D01*
X78455Y135207D01*
X78469Y135282D01*
X78478Y135357D01*
X78484Y135433D01*
X78486Y135509D01*
X78020Y134422D02*
X75382Y131318D01*
X78486Y131318D01*
X88062Y135664D02*
X89614Y136906D01*
X89614Y131318D01*
X88062Y131318D02*
X91166Y131318D01*
X93676Y132249D02*
X93676Y135043D01*
X93676Y132249D02*
X93678Y132191D01*
X93683Y132132D01*
X93692Y132075D01*
X93705Y132017D01*
X93722Y131961D01*
X93741Y131906D01*
X93765Y131853D01*
X93791Y131800D01*
X93821Y131750D01*
X93854Y131702D01*
X93890Y131656D01*
X93928Y131612D01*
X93970Y131570D01*
X94014Y131532D01*
X94060Y131496D01*
X94108Y131463D01*
X94158Y131433D01*
X94211Y131407D01*
X94264Y131383D01*
X94319Y131364D01*
X94375Y131347D01*
X94433Y131334D01*
X94490Y131325D01*
X94549Y131320D01*
X94607Y131318D01*
X96159Y131318D01*
X96159Y135043D01*
X98862Y136906D02*
X98862Y131318D01*
X98862Y136906D02*
X101346Y136906D01*
X101346Y134422D02*
X98862Y134422D01*
D12*
X93120Y51210D03*
X93120Y57710D03*
X93120Y64210D03*
X93120Y70710D03*
X49120Y51210D03*
X49120Y57710D03*
X49120Y64210D03*
X49120Y70710D03*
D13*
X189060Y208280D02*
X204140Y208280D01*
X204140Y188280D02*
X189060Y188280D01*
X189060Y168280D02*
X204140Y168280D01*
X204140Y148280D02*
X189060Y148280D01*
X189060Y228280D02*
X204140Y228280D01*
X204140Y248280D02*
X189060Y248280D01*
X189060Y268280D02*
X204140Y268280D01*
X204140Y288280D02*
X189060Y288280D01*
X59220Y288280D02*
X44140Y288280D01*
X44140Y268280D02*
X59220Y268280D01*
X59220Y248280D02*
X44140Y248280D01*
X44140Y208280D02*
X59220Y208280D01*
X59220Y228280D02*
X44140Y228280D01*
X44140Y188280D02*
X59220Y188280D01*
X59220Y168280D02*
X44140Y168280D01*
X44140Y148280D02*
X59220Y148280D01*
D14*
X55951Y312501D02*
X51774Y312501D01*
X51774Y321899D01*
X55951Y321899D01*
X54907Y317722D02*
X51774Y317722D01*
X62204Y312501D02*
X62293Y312503D01*
X62381Y312509D01*
X62469Y312518D01*
X62557Y312531D01*
X62644Y312548D01*
X62730Y312568D01*
X62815Y312593D01*
X62900Y312620D01*
X62983Y312652D01*
X63064Y312686D01*
X63144Y312725D01*
X63222Y312766D01*
X63299Y312811D01*
X63373Y312859D01*
X63446Y312910D01*
X63516Y312964D01*
X63583Y313022D01*
X63649Y313082D01*
X63711Y313144D01*
X63771Y313210D01*
X63829Y313277D01*
X63883Y313347D01*
X63934Y313420D01*
X63982Y313494D01*
X64027Y313571D01*
X64068Y313649D01*
X64107Y313729D01*
X64141Y313810D01*
X64173Y313893D01*
X64200Y313978D01*
X64225Y314063D01*
X64245Y314149D01*
X64262Y314236D01*
X64275Y314324D01*
X64284Y314412D01*
X64290Y314500D01*
X64292Y314589D01*
X62204Y312501D02*
X62075Y312503D01*
X61946Y312509D01*
X61817Y312518D01*
X61689Y312531D01*
X61561Y312548D01*
X61434Y312569D01*
X61307Y312593D01*
X61181Y312621D01*
X61056Y312653D01*
X60932Y312688D01*
X60809Y312727D01*
X60687Y312770D01*
X60567Y312816D01*
X60448Y312866D01*
X60330Y312919D01*
X60214Y312975D01*
X60100Y313035D01*
X59987Y313098D01*
X59877Y313165D01*
X59768Y313234D01*
X59662Y313307D01*
X59557Y313383D01*
X59455Y313462D01*
X59356Y313544D01*
X59258Y313628D01*
X59163Y313716D01*
X59071Y313806D01*
X59333Y319811D02*
X59335Y319900D01*
X59341Y319988D01*
X59350Y320076D01*
X59363Y320164D01*
X59380Y320251D01*
X59400Y320337D01*
X59425Y320422D01*
X59452Y320507D01*
X59484Y320590D01*
X59518Y320671D01*
X59557Y320751D01*
X59598Y320829D01*
X59643Y320906D01*
X59691Y320980D01*
X59742Y321053D01*
X59796Y321123D01*
X59854Y321190D01*
X59914Y321256D01*
X59976Y321318D01*
X60042Y321378D01*
X60109Y321436D01*
X60179Y321490D01*
X60252Y321541D01*
X60326Y321589D01*
X60403Y321634D01*
X60481Y321675D01*
X60561Y321714D01*
X60642Y321748D01*
X60725Y321780D01*
X60810Y321807D01*
X60895Y321832D01*
X60981Y321852D01*
X61068Y321869D01*
X61156Y321882D01*
X61244Y321891D01*
X61332Y321897D01*
X61421Y321899D01*
X61541Y321897D01*
X61661Y321892D01*
X61781Y321882D01*
X61900Y321870D01*
X62019Y321853D01*
X62137Y321833D01*
X62255Y321809D01*
X62371Y321782D01*
X62487Y321751D01*
X62602Y321717D01*
X62716Y321679D01*
X62829Y321637D01*
X62940Y321592D01*
X63050Y321544D01*
X63158Y321493D01*
X63265Y321438D01*
X63370Y321380D01*
X63473Y321318D01*
X63574Y321254D01*
X63674Y321186D01*
X63771Y321116D01*
X60377Y317984D02*
X60299Y318032D01*
X60223Y318084D01*
X60150Y318138D01*
X60079Y318196D01*
X60010Y318257D01*
X59944Y318321D01*
X59881Y318388D01*
X59821Y318457D01*
X59764Y318529D01*
X59710Y318603D01*
X59660Y318680D01*
X59612Y318759D01*
X59569Y318839D01*
X59528Y318922D01*
X59492Y319006D01*
X59459Y319091D01*
X59430Y319178D01*
X59404Y319267D01*
X59382Y319356D01*
X59365Y319446D01*
X59351Y319536D01*
X59341Y319628D01*
X59335Y319719D01*
X59333Y319811D01*
X63249Y316416D02*
X63327Y316368D01*
X63403Y316316D01*
X63476Y316262D01*
X63547Y316204D01*
X63616Y316143D01*
X63682Y316079D01*
X63745Y316012D01*
X63805Y315943D01*
X63862Y315871D01*
X63916Y315797D01*
X63966Y315720D01*
X64014Y315641D01*
X64057Y315561D01*
X64098Y315478D01*
X64134Y315394D01*
X64167Y315309D01*
X64196Y315222D01*
X64222Y315133D01*
X64244Y315044D01*
X64261Y314954D01*
X64275Y314864D01*
X64285Y314772D01*
X64291Y314681D01*
X64293Y314589D01*
X63249Y316417D02*
X60377Y317983D01*
X68347Y321899D02*
X68347Y312501D01*
X68347Y321899D02*
X70957Y321899D01*
X71058Y321897D01*
X71159Y321891D01*
X71260Y321881D01*
X71360Y321868D01*
X71460Y321850D01*
X71559Y321829D01*
X71657Y321803D01*
X71754Y321774D01*
X71850Y321742D01*
X71944Y321705D01*
X72037Y321665D01*
X72129Y321621D01*
X72218Y321574D01*
X72306Y321523D01*
X72392Y321469D01*
X72475Y321412D01*
X72557Y321352D01*
X72635Y321288D01*
X72712Y321222D01*
X72785Y321152D01*
X72856Y321080D01*
X72924Y321005D01*
X72989Y320927D01*
X73051Y320847D01*
X73110Y320765D01*
X73166Y320680D01*
X73218Y320593D01*
X73267Y320505D01*
X73313Y320414D01*
X73354Y320322D01*
X73393Y320228D01*
X73427Y320133D01*
X73458Y320037D01*
X73485Y319939D01*
X73509Y319841D01*
X73528Y319741D01*
X73544Y319641D01*
X73556Y319541D01*
X73564Y319440D01*
X73568Y319339D01*
X73568Y319237D01*
X73564Y319136D01*
X73556Y319035D01*
X73544Y318935D01*
X73528Y318835D01*
X73509Y318735D01*
X73485Y318637D01*
X73458Y318539D01*
X73427Y318443D01*
X73393Y318348D01*
X73354Y318254D01*
X73313Y318162D01*
X73267Y318071D01*
X73218Y317983D01*
X73166Y317896D01*
X73110Y317811D01*
X73051Y317729D01*
X72989Y317649D01*
X72924Y317571D01*
X72856Y317496D01*
X72785Y317424D01*
X72712Y317354D01*
X72635Y317288D01*
X72557Y317224D01*
X72475Y317164D01*
X72392Y317107D01*
X72306Y317053D01*
X72218Y317002D01*
X72129Y316955D01*
X72037Y316911D01*
X71944Y316871D01*
X71850Y316834D01*
X71754Y316802D01*
X71657Y316773D01*
X71559Y316747D01*
X71460Y316726D01*
X71360Y316708D01*
X71260Y316695D01*
X71159Y316685D01*
X71058Y316679D01*
X70957Y316677D01*
X70957Y316678D02*
X68347Y316678D01*
X77054Y315112D02*
X77056Y315213D01*
X77062Y315314D01*
X77072Y315415D01*
X77085Y315515D01*
X77103Y315615D01*
X77124Y315714D01*
X77150Y315812D01*
X77179Y315909D01*
X77211Y316005D01*
X77248Y316099D01*
X77288Y316192D01*
X77332Y316284D01*
X77379Y316373D01*
X77430Y316461D01*
X77484Y316547D01*
X77541Y316630D01*
X77601Y316712D01*
X77665Y316790D01*
X77731Y316867D01*
X77801Y316940D01*
X77873Y317011D01*
X77948Y317079D01*
X78026Y317144D01*
X78106Y317206D01*
X78188Y317265D01*
X78273Y317321D01*
X78360Y317373D01*
X78448Y317422D01*
X78539Y317468D01*
X78631Y317509D01*
X78725Y317548D01*
X78820Y317582D01*
X78916Y317613D01*
X79014Y317640D01*
X79112Y317664D01*
X79212Y317683D01*
X79312Y317699D01*
X79412Y317711D01*
X79513Y317719D01*
X79614Y317723D01*
X79716Y317723D01*
X79817Y317719D01*
X79918Y317711D01*
X80018Y317699D01*
X80118Y317683D01*
X80218Y317664D01*
X80316Y317640D01*
X80414Y317613D01*
X80510Y317582D01*
X80605Y317548D01*
X80699Y317509D01*
X80791Y317468D01*
X80882Y317422D01*
X80971Y317373D01*
X81057Y317321D01*
X81142Y317265D01*
X81224Y317206D01*
X81304Y317144D01*
X81382Y317079D01*
X81457Y317011D01*
X81529Y316940D01*
X81599Y316867D01*
X81665Y316790D01*
X81729Y316712D01*
X81789Y316630D01*
X81846Y316547D01*
X81900Y316461D01*
X81951Y316373D01*
X81998Y316284D01*
X82042Y316192D01*
X82082Y316099D01*
X82119Y316005D01*
X82151Y315909D01*
X82180Y315812D01*
X82206Y315714D01*
X82227Y315615D01*
X82245Y315515D01*
X82258Y315415D01*
X82268Y315314D01*
X82274Y315213D01*
X82276Y315112D01*
X82274Y315011D01*
X82268Y314910D01*
X82258Y314809D01*
X82245Y314709D01*
X82227Y314609D01*
X82206Y314510D01*
X82180Y314412D01*
X82151Y314315D01*
X82119Y314219D01*
X82082Y314125D01*
X82042Y314032D01*
X81998Y313940D01*
X81951Y313851D01*
X81900Y313763D01*
X81846Y313677D01*
X81789Y313594D01*
X81729Y313512D01*
X81665Y313434D01*
X81599Y313357D01*
X81529Y313284D01*
X81457Y313213D01*
X81382Y313145D01*
X81304Y313080D01*
X81224Y313018D01*
X81142Y312959D01*
X81057Y312903D01*
X80970Y312851D01*
X80882Y312802D01*
X80791Y312756D01*
X80699Y312715D01*
X80605Y312676D01*
X80510Y312642D01*
X80414Y312611D01*
X80316Y312584D01*
X80218Y312560D01*
X80118Y312541D01*
X80018Y312525D01*
X79918Y312513D01*
X79817Y312505D01*
X79716Y312501D01*
X79614Y312501D01*
X79513Y312505D01*
X79412Y312513D01*
X79312Y312525D01*
X79212Y312541D01*
X79112Y312560D01*
X79014Y312584D01*
X78916Y312611D01*
X78820Y312642D01*
X78725Y312676D01*
X78631Y312715D01*
X78539Y312756D01*
X78448Y312802D01*
X78360Y312851D01*
X78273Y312903D01*
X78188Y312959D01*
X78106Y313018D01*
X78026Y313080D01*
X77948Y313145D01*
X77873Y313213D01*
X77801Y313284D01*
X77731Y313357D01*
X77665Y313434D01*
X77601Y313512D01*
X77541Y313594D01*
X77484Y313677D01*
X77430Y313763D01*
X77379Y313851D01*
X77332Y313940D01*
X77288Y314032D01*
X77248Y314125D01*
X77211Y314219D01*
X77179Y314315D01*
X77150Y314412D01*
X77124Y314510D01*
X77103Y314609D01*
X77085Y314709D01*
X77072Y314809D01*
X77062Y314910D01*
X77056Y315011D01*
X77054Y315112D01*
X77577Y319811D02*
X77579Y319901D01*
X77585Y319990D01*
X77594Y320080D01*
X77608Y320169D01*
X77625Y320257D01*
X77646Y320344D01*
X77671Y320431D01*
X77700Y320516D01*
X77732Y320600D01*
X77767Y320682D01*
X77807Y320763D01*
X77849Y320842D01*
X77895Y320919D01*
X77945Y320994D01*
X77997Y321067D01*
X78053Y321138D01*
X78111Y321206D01*
X78173Y321271D01*
X78237Y321334D01*
X78304Y321394D01*
X78373Y321451D01*
X78445Y321505D01*
X78519Y321556D01*
X78595Y321604D01*
X78673Y321648D01*
X78753Y321689D01*
X78835Y321727D01*
X78918Y321761D01*
X79003Y321791D01*
X79089Y321818D01*
X79175Y321841D01*
X79263Y321860D01*
X79352Y321875D01*
X79441Y321887D01*
X79530Y321895D01*
X79620Y321899D01*
X79710Y321899D01*
X79800Y321895D01*
X79889Y321887D01*
X79978Y321875D01*
X80067Y321860D01*
X80155Y321841D01*
X80241Y321818D01*
X80327Y321791D01*
X80412Y321761D01*
X80495Y321727D01*
X80577Y321689D01*
X80657Y321648D01*
X80735Y321604D01*
X80811Y321556D01*
X80885Y321505D01*
X80957Y321451D01*
X81026Y321394D01*
X81093Y321334D01*
X81157Y321271D01*
X81219Y321206D01*
X81277Y321138D01*
X81333Y321067D01*
X81385Y320994D01*
X81435Y320919D01*
X81481Y320842D01*
X81523Y320763D01*
X81563Y320682D01*
X81598Y320600D01*
X81630Y320516D01*
X81659Y320431D01*
X81684Y320344D01*
X81705Y320257D01*
X81722Y320169D01*
X81736Y320080D01*
X81745Y319990D01*
X81751Y319901D01*
X81753Y319811D01*
X81751Y319721D01*
X81745Y319632D01*
X81736Y319542D01*
X81722Y319453D01*
X81705Y319365D01*
X81684Y319278D01*
X81659Y319191D01*
X81630Y319106D01*
X81598Y319022D01*
X81563Y318940D01*
X81523Y318859D01*
X81481Y318780D01*
X81435Y318703D01*
X81385Y318628D01*
X81333Y318555D01*
X81277Y318484D01*
X81219Y318416D01*
X81157Y318351D01*
X81093Y318288D01*
X81026Y318228D01*
X80957Y318171D01*
X80885Y318117D01*
X80811Y318066D01*
X80735Y318018D01*
X80657Y317974D01*
X80577Y317933D01*
X80495Y317895D01*
X80412Y317861D01*
X80327Y317831D01*
X80241Y317804D01*
X80155Y317781D01*
X80067Y317762D01*
X79978Y317747D01*
X79889Y317735D01*
X79800Y317727D01*
X79710Y317723D01*
X79620Y317723D01*
X79530Y317727D01*
X79441Y317735D01*
X79352Y317747D01*
X79263Y317762D01*
X79175Y317781D01*
X79089Y317804D01*
X79003Y317831D01*
X78918Y317861D01*
X78835Y317895D01*
X78753Y317933D01*
X78673Y317974D01*
X78595Y318018D01*
X78519Y318066D01*
X78445Y318117D01*
X78373Y318171D01*
X78304Y318228D01*
X78237Y318288D01*
X78173Y318351D01*
X78111Y318416D01*
X78053Y318484D01*
X77997Y318555D01*
X77945Y318628D01*
X77895Y318703D01*
X77849Y318780D01*
X77807Y318859D01*
X77767Y318940D01*
X77732Y319022D01*
X77700Y319106D01*
X77671Y319191D01*
X77646Y319278D01*
X77625Y319365D01*
X77608Y319453D01*
X77594Y319542D01*
X77585Y319632D01*
X77579Y319721D01*
X77577Y319811D01*
X89070Y321900D02*
X89165Y321898D01*
X89259Y321892D01*
X89353Y321883D01*
X89447Y321870D01*
X89540Y321853D01*
X89632Y321832D01*
X89724Y321807D01*
X89814Y321779D01*
X89903Y321747D01*
X89991Y321712D01*
X90077Y321673D01*
X90162Y321631D01*
X90245Y321585D01*
X90326Y321536D01*
X90405Y321484D01*
X90482Y321429D01*
X90556Y321370D01*
X90628Y321309D01*
X90698Y321245D01*
X90765Y321178D01*
X90829Y321108D01*
X90890Y321036D01*
X90949Y320962D01*
X91004Y320885D01*
X91056Y320806D01*
X91105Y320725D01*
X91151Y320642D01*
X91193Y320557D01*
X91232Y320471D01*
X91267Y320383D01*
X91299Y320294D01*
X91327Y320204D01*
X91352Y320112D01*
X91373Y320020D01*
X91390Y319927D01*
X91403Y319833D01*
X91412Y319739D01*
X91418Y319645D01*
X91420Y319550D01*
X89070Y321899D02*
X88962Y321897D01*
X88853Y321891D01*
X88745Y321881D01*
X88638Y321868D01*
X88531Y321850D01*
X88424Y321829D01*
X88319Y321804D01*
X88214Y321775D01*
X88111Y321743D01*
X88009Y321706D01*
X87908Y321666D01*
X87809Y321623D01*
X87711Y321576D01*
X87615Y321525D01*
X87521Y321471D01*
X87429Y321414D01*
X87339Y321353D01*
X87251Y321289D01*
X87166Y321223D01*
X87083Y321153D01*
X87003Y321080D01*
X86925Y321004D01*
X86850Y320926D01*
X86778Y320845D01*
X86709Y320761D01*
X86643Y320675D01*
X86580Y320587D01*
X86521Y320496D01*
X86464Y320404D01*
X86411Y320309D01*
X86362Y320213D01*
X86316Y320114D01*
X86273Y320015D01*
X86234Y319913D01*
X86199Y319811D01*
X90637Y317722D02*
X90706Y317791D01*
X90772Y317862D01*
X90836Y317935D01*
X90897Y318011D01*
X90955Y318090D01*
X91009Y318170D01*
X91061Y318253D01*
X91109Y318337D01*
X91155Y318423D01*
X91196Y318511D01*
X91235Y318601D01*
X91270Y318692D01*
X91301Y318784D01*
X91329Y318877D01*
X91353Y318971D01*
X91373Y319066D01*
X91390Y319162D01*
X91403Y319259D01*
X91412Y319356D01*
X91418Y319453D01*
X91420Y319550D01*
X90637Y317722D02*
X86199Y312501D01*
X91420Y312501D01*
X95343Y317722D02*
X98475Y317722D01*
X98564Y317720D01*
X98652Y317714D01*
X98740Y317705D01*
X98828Y317692D01*
X98915Y317675D01*
X99001Y317655D01*
X99086Y317630D01*
X99171Y317603D01*
X99254Y317571D01*
X99335Y317537D01*
X99415Y317498D01*
X99493Y317457D01*
X99570Y317412D01*
X99644Y317364D01*
X99717Y317313D01*
X99787Y317259D01*
X99854Y317201D01*
X99920Y317141D01*
X99982Y317079D01*
X100042Y317013D01*
X100100Y316946D01*
X100154Y316876D01*
X100205Y316803D01*
X100253Y316729D01*
X100298Y316652D01*
X100339Y316574D01*
X100378Y316494D01*
X100412Y316413D01*
X100444Y316330D01*
X100471Y316245D01*
X100496Y316160D01*
X100516Y316074D01*
X100533Y315987D01*
X100546Y315899D01*
X100555Y315811D01*
X100561Y315723D01*
X100563Y315634D01*
X100564Y315634D02*
X100564Y315112D01*
X100562Y315011D01*
X100556Y314910D01*
X100546Y314809D01*
X100533Y314709D01*
X100515Y314609D01*
X100494Y314510D01*
X100468Y314412D01*
X100439Y314315D01*
X100407Y314219D01*
X100370Y314125D01*
X100330Y314032D01*
X100286Y313940D01*
X100239Y313851D01*
X100188Y313763D01*
X100134Y313677D01*
X100077Y313594D01*
X100017Y313512D01*
X99953Y313434D01*
X99887Y313357D01*
X99817Y313284D01*
X99745Y313213D01*
X99670Y313145D01*
X99592Y313080D01*
X99512Y313018D01*
X99430Y312959D01*
X99345Y312903D01*
X99258Y312851D01*
X99170Y312802D01*
X99079Y312756D01*
X98987Y312715D01*
X98893Y312676D01*
X98798Y312642D01*
X98702Y312611D01*
X98604Y312584D01*
X98506Y312560D01*
X98406Y312541D01*
X98306Y312525D01*
X98206Y312513D01*
X98105Y312505D01*
X98004Y312501D01*
X97902Y312501D01*
X97801Y312505D01*
X97700Y312513D01*
X97600Y312525D01*
X97500Y312541D01*
X97400Y312560D01*
X97302Y312584D01*
X97204Y312611D01*
X97108Y312642D01*
X97013Y312676D01*
X96919Y312715D01*
X96827Y312756D01*
X96736Y312802D01*
X96648Y312851D01*
X96561Y312903D01*
X96476Y312959D01*
X96394Y313018D01*
X96314Y313080D01*
X96236Y313145D01*
X96161Y313213D01*
X96089Y313284D01*
X96019Y313357D01*
X95953Y313434D01*
X95889Y313512D01*
X95829Y313594D01*
X95772Y313677D01*
X95718Y313763D01*
X95667Y313851D01*
X95620Y313940D01*
X95576Y314032D01*
X95536Y314125D01*
X95499Y314219D01*
X95467Y314315D01*
X95438Y314412D01*
X95412Y314510D01*
X95391Y314609D01*
X95373Y314709D01*
X95360Y314809D01*
X95350Y314910D01*
X95344Y315011D01*
X95342Y315112D01*
X95343Y315112D02*
X95343Y317722D01*
X95345Y317851D01*
X95351Y317979D01*
X95361Y318107D01*
X95375Y318235D01*
X95392Y318363D01*
X95414Y318490D01*
X95440Y318616D01*
X95469Y318741D01*
X95502Y318865D01*
X95540Y318988D01*
X95580Y319110D01*
X95625Y319231D01*
X95673Y319350D01*
X95725Y319468D01*
X95781Y319584D01*
X95840Y319698D01*
X95903Y319810D01*
X95969Y319921D01*
X96038Y320029D01*
X96111Y320135D01*
X96187Y320239D01*
X96266Y320341D01*
X96348Y320440D01*
X96433Y320536D01*
X96521Y320630D01*
X96612Y320721D01*
X96706Y320809D01*
X96802Y320894D01*
X96901Y320976D01*
X97003Y321055D01*
X97107Y321131D01*
X97213Y321204D01*
X97321Y321273D01*
X97431Y321339D01*
X97544Y321402D01*
X97658Y321461D01*
X97774Y321517D01*
X97892Y321569D01*
X98011Y321617D01*
X98132Y321662D01*
X98254Y321702D01*
X98377Y321740D01*
X98501Y321773D01*
X98626Y321802D01*
X98752Y321828D01*
X98879Y321850D01*
X99007Y321867D01*
X99135Y321881D01*
X99263Y321891D01*
X99391Y321897D01*
X99520Y321899D01*
X104487Y317722D02*
X107619Y317722D01*
X107708Y317720D01*
X107796Y317714D01*
X107884Y317705D01*
X107972Y317692D01*
X108059Y317675D01*
X108145Y317655D01*
X108230Y317630D01*
X108315Y317603D01*
X108398Y317571D01*
X108479Y317537D01*
X108559Y317498D01*
X108637Y317457D01*
X108714Y317412D01*
X108788Y317364D01*
X108861Y317313D01*
X108931Y317259D01*
X108998Y317201D01*
X109064Y317141D01*
X109126Y317079D01*
X109186Y317013D01*
X109244Y316946D01*
X109298Y316876D01*
X109349Y316803D01*
X109397Y316729D01*
X109442Y316652D01*
X109483Y316574D01*
X109522Y316494D01*
X109556Y316413D01*
X109588Y316330D01*
X109615Y316245D01*
X109640Y316160D01*
X109660Y316074D01*
X109677Y315987D01*
X109690Y315899D01*
X109699Y315811D01*
X109705Y315723D01*
X109707Y315634D01*
X109708Y315634D02*
X109708Y315112D01*
X109706Y315011D01*
X109700Y314910D01*
X109690Y314809D01*
X109677Y314709D01*
X109659Y314609D01*
X109638Y314510D01*
X109612Y314412D01*
X109583Y314315D01*
X109551Y314219D01*
X109514Y314125D01*
X109474Y314032D01*
X109430Y313940D01*
X109383Y313851D01*
X109332Y313763D01*
X109278Y313677D01*
X109221Y313594D01*
X109161Y313512D01*
X109097Y313434D01*
X109031Y313357D01*
X108961Y313284D01*
X108889Y313213D01*
X108814Y313145D01*
X108736Y313080D01*
X108656Y313018D01*
X108574Y312959D01*
X108489Y312903D01*
X108402Y312851D01*
X108314Y312802D01*
X108223Y312756D01*
X108131Y312715D01*
X108037Y312676D01*
X107942Y312642D01*
X107846Y312611D01*
X107748Y312584D01*
X107650Y312560D01*
X107550Y312541D01*
X107450Y312525D01*
X107350Y312513D01*
X107249Y312505D01*
X107148Y312501D01*
X107046Y312501D01*
X106945Y312505D01*
X106844Y312513D01*
X106744Y312525D01*
X106644Y312541D01*
X106544Y312560D01*
X106446Y312584D01*
X106348Y312611D01*
X106252Y312642D01*
X106157Y312676D01*
X106063Y312715D01*
X105971Y312756D01*
X105880Y312802D01*
X105792Y312851D01*
X105705Y312903D01*
X105620Y312959D01*
X105538Y313018D01*
X105458Y313080D01*
X105380Y313145D01*
X105305Y313213D01*
X105233Y313284D01*
X105163Y313357D01*
X105097Y313434D01*
X105033Y313512D01*
X104973Y313594D01*
X104916Y313677D01*
X104862Y313763D01*
X104811Y313851D01*
X104764Y313940D01*
X104720Y314032D01*
X104680Y314125D01*
X104643Y314219D01*
X104611Y314315D01*
X104582Y314412D01*
X104556Y314510D01*
X104535Y314609D01*
X104517Y314709D01*
X104504Y314809D01*
X104494Y314910D01*
X104488Y315011D01*
X104486Y315112D01*
X104487Y315112D02*
X104487Y317722D01*
X104489Y317851D01*
X104495Y317979D01*
X104505Y318107D01*
X104519Y318235D01*
X104536Y318363D01*
X104558Y318490D01*
X104584Y318616D01*
X104613Y318741D01*
X104646Y318865D01*
X104684Y318988D01*
X104724Y319110D01*
X104769Y319231D01*
X104817Y319350D01*
X104869Y319468D01*
X104925Y319584D01*
X104984Y319698D01*
X105047Y319810D01*
X105113Y319921D01*
X105182Y320029D01*
X105255Y320135D01*
X105331Y320239D01*
X105410Y320341D01*
X105492Y320440D01*
X105577Y320536D01*
X105665Y320630D01*
X105756Y320721D01*
X105850Y320809D01*
X105946Y320894D01*
X106045Y320976D01*
X106147Y321055D01*
X106251Y321131D01*
X106357Y321204D01*
X106465Y321273D01*
X106575Y321339D01*
X106688Y321402D01*
X106802Y321461D01*
X106918Y321517D01*
X107036Y321569D01*
X107155Y321617D01*
X107276Y321662D01*
X107398Y321702D01*
X107521Y321740D01*
X107645Y321773D01*
X107770Y321802D01*
X107896Y321828D01*
X108023Y321850D01*
X108151Y321867D01*
X108279Y321881D01*
X108407Y321891D01*
X108535Y321897D01*
X108664Y321899D01*
X113718Y316156D02*
X119984Y316156D01*
X123994Y317200D02*
X123996Y317385D01*
X124003Y317570D01*
X124014Y317754D01*
X124029Y317938D01*
X124049Y318122D01*
X124073Y318306D01*
X124102Y318488D01*
X124135Y318670D01*
X124172Y318851D01*
X124214Y319031D01*
X124260Y319211D01*
X124310Y319389D01*
X124364Y319565D01*
X124423Y319741D01*
X124485Y319915D01*
X124552Y320087D01*
X124623Y320258D01*
X124698Y320427D01*
X124777Y320594D01*
X124776Y320594D02*
X124806Y320674D01*
X124839Y320753D01*
X124876Y320830D01*
X124916Y320906D01*
X124959Y320980D01*
X125005Y321052D01*
X125055Y321121D01*
X125107Y321189D01*
X125163Y321254D01*
X125221Y321317D01*
X125283Y321376D01*
X125346Y321434D01*
X125413Y321488D01*
X125481Y321539D01*
X125552Y321587D01*
X125625Y321632D01*
X125699Y321674D01*
X125776Y321712D01*
X125854Y321747D01*
X125933Y321779D01*
X126014Y321807D01*
X126096Y321831D01*
X126180Y321852D01*
X126263Y321869D01*
X126348Y321882D01*
X126433Y321891D01*
X126518Y321897D01*
X126604Y321899D01*
X126690Y321897D01*
X126775Y321891D01*
X126860Y321882D01*
X126945Y321869D01*
X127028Y321852D01*
X127112Y321831D01*
X127194Y321807D01*
X127275Y321779D01*
X127354Y321747D01*
X127432Y321712D01*
X127509Y321674D01*
X127583Y321632D01*
X127656Y321587D01*
X127727Y321539D01*
X127795Y321488D01*
X127862Y321434D01*
X127925Y321376D01*
X127987Y321317D01*
X128045Y321254D01*
X128101Y321189D01*
X128153Y321121D01*
X128203Y321052D01*
X128249Y320980D01*
X128292Y320906D01*
X128332Y320830D01*
X128369Y320753D01*
X128402Y320674D01*
X128432Y320594D01*
X128511Y320427D01*
X128586Y320258D01*
X128657Y320087D01*
X128724Y319915D01*
X128786Y319741D01*
X128845Y319565D01*
X128899Y319389D01*
X128949Y319211D01*
X128995Y319031D01*
X129037Y318851D01*
X129074Y318670D01*
X129107Y318488D01*
X129136Y318306D01*
X129160Y318122D01*
X129180Y317938D01*
X129195Y317754D01*
X129206Y317570D01*
X129213Y317385D01*
X129215Y317200D01*
X123994Y317200D02*
X123996Y317015D01*
X124003Y316830D01*
X124014Y316646D01*
X124029Y316462D01*
X124049Y316278D01*
X124073Y316094D01*
X124102Y315912D01*
X124135Y315730D01*
X124172Y315549D01*
X124214Y315369D01*
X124260Y315189D01*
X124310Y315011D01*
X124364Y314835D01*
X124423Y314659D01*
X124485Y314485D01*
X124552Y314313D01*
X124623Y314142D01*
X124698Y313973D01*
X124777Y313806D01*
X124776Y313806D02*
X124806Y313726D01*
X124839Y313647D01*
X124876Y313570D01*
X124916Y313494D01*
X124959Y313420D01*
X125005Y313348D01*
X125055Y313279D01*
X125108Y313211D01*
X125163Y313146D01*
X125222Y313083D01*
X125283Y313024D01*
X125346Y312966D01*
X125413Y312912D01*
X125481Y312861D01*
X125552Y312813D01*
X125625Y312768D01*
X125699Y312726D01*
X125776Y312688D01*
X125854Y312653D01*
X125933Y312621D01*
X126014Y312593D01*
X126096Y312569D01*
X126180Y312548D01*
X126263Y312531D01*
X126348Y312518D01*
X126433Y312509D01*
X126518Y312503D01*
X126604Y312501D01*
X128432Y313806D02*
X128511Y313973D01*
X128586Y314142D01*
X128657Y314313D01*
X128724Y314485D01*
X128786Y314659D01*
X128845Y314835D01*
X128899Y315011D01*
X128949Y315189D01*
X128995Y315369D01*
X129037Y315549D01*
X129074Y315730D01*
X129107Y315912D01*
X129136Y316094D01*
X129160Y316278D01*
X129180Y316462D01*
X129195Y316646D01*
X129206Y316830D01*
X129213Y317015D01*
X129215Y317200D01*
X128432Y313806D02*
X128402Y313726D01*
X128369Y313647D01*
X128332Y313570D01*
X128292Y313494D01*
X128249Y313420D01*
X128203Y313348D01*
X128153Y313279D01*
X128101Y313211D01*
X128045Y313146D01*
X127987Y313083D01*
X127925Y313024D01*
X127862Y312966D01*
X127795Y312912D01*
X127727Y312861D01*
X127656Y312813D01*
X127583Y312768D01*
X127509Y312726D01*
X127432Y312688D01*
X127354Y312653D01*
X127275Y312621D01*
X127194Y312593D01*
X127112Y312569D01*
X127028Y312548D01*
X126945Y312531D01*
X126860Y312518D01*
X126775Y312509D01*
X126690Y312503D01*
X126604Y312501D01*
X124516Y314589D02*
X128693Y319811D01*
X133138Y320855D02*
X133138Y321899D01*
X138359Y321899D01*
X135748Y312501D01*
D15*
X154940Y49130D03*
D16*
X185940Y47880D03*
X123940Y47880D03*
D17*
X116940Y22380D03*
X192940Y22380D03*
X166940Y22380D03*
X142940Y22380D03*
D15*
X148440Y49130D03*
X141940Y49130D03*
X167940Y49130D03*
X161440Y49130D03*
D18*
X180860Y96520D03*
D19*
X118860Y96520D03*
X118860Y119520D03*
X118860Y73520D03*
D20*
X22860Y220320D03*
X22860Y201320D03*
D11*
X16002Y237571D02*
X10414Y237571D01*
X10414Y239124D01*
X10416Y239201D01*
X10422Y239279D01*
X10431Y239355D01*
X10445Y239432D01*
X10462Y239507D01*
X10483Y239581D01*
X10508Y239655D01*
X10536Y239727D01*
X10568Y239797D01*
X10603Y239866D01*
X10642Y239933D01*
X10684Y239998D01*
X10729Y240061D01*
X10777Y240122D01*
X10828Y240180D01*
X10882Y240235D01*
X10939Y240288D01*
X10998Y240337D01*
X11060Y240384D01*
X11124Y240428D01*
X11190Y240468D01*
X11258Y240505D01*
X11328Y240539D01*
X11399Y240569D01*
X11472Y240595D01*
X11546Y240618D01*
X11621Y240637D01*
X11696Y240652D01*
X11773Y240664D01*
X11850Y240672D01*
X11927Y240676D01*
X12005Y240676D01*
X12082Y240672D01*
X12159Y240664D01*
X12236Y240652D01*
X12311Y240637D01*
X12386Y240618D01*
X12460Y240595D01*
X12533Y240569D01*
X12604Y240539D01*
X12674Y240505D01*
X12742Y240468D01*
X12808Y240428D01*
X12872Y240384D01*
X12934Y240337D01*
X12993Y240288D01*
X13050Y240235D01*
X13104Y240180D01*
X13155Y240122D01*
X13203Y240061D01*
X13248Y239998D01*
X13290Y239933D01*
X13329Y239866D01*
X13364Y239797D01*
X13396Y239727D01*
X13424Y239655D01*
X13449Y239581D01*
X13470Y239507D01*
X13487Y239432D01*
X13501Y239355D01*
X13510Y239279D01*
X13516Y239201D01*
X13518Y239124D01*
X13518Y237571D01*
X13518Y239434D02*
X16002Y240676D01*
X11656Y243022D02*
X10414Y244574D01*
X16002Y244574D01*
X16002Y243022D02*
X16002Y246126D01*
X19558Y238026D02*
X20800Y236474D01*
X19558Y238026D02*
X25146Y238026D01*
X25146Y236474D02*
X25146Y239578D01*
X22352Y241960D02*
X22221Y241962D01*
X22091Y241967D01*
X21961Y241977D01*
X21831Y241990D01*
X21701Y242006D01*
X21572Y242026D01*
X21444Y242050D01*
X21317Y242078D01*
X21190Y242109D01*
X21064Y242144D01*
X20939Y242182D01*
X20815Y242224D01*
X20693Y242269D01*
X20572Y242318D01*
X20452Y242370D01*
X20334Y242426D01*
X20274Y242449D01*
X20214Y242475D01*
X20157Y242504D01*
X20101Y242537D01*
X20047Y242573D01*
X19995Y242611D01*
X19945Y242653D01*
X19898Y242697D01*
X19853Y242744D01*
X19811Y242794D01*
X19772Y242845D01*
X19736Y242899D01*
X19703Y242955D01*
X19673Y243012D01*
X19646Y243071D01*
X19623Y243132D01*
X19603Y243193D01*
X19587Y243256D01*
X19574Y243320D01*
X19565Y243384D01*
X19560Y243448D01*
X19558Y243513D01*
X19560Y243578D01*
X19565Y243642D01*
X19574Y243706D01*
X19587Y243770D01*
X19603Y243833D01*
X19623Y243894D01*
X19646Y243955D01*
X19673Y244014D01*
X19703Y244071D01*
X19736Y244127D01*
X19772Y244181D01*
X19811Y244232D01*
X19853Y244282D01*
X19898Y244329D01*
X19945Y244373D01*
X19995Y244415D01*
X20047Y244453D01*
X20101Y244489D01*
X20157Y244522D01*
X20214Y244551D01*
X20274Y244577D01*
X20334Y244600D01*
X20334Y244599D02*
X20452Y244655D01*
X20572Y244707D01*
X20693Y244756D01*
X20815Y244801D01*
X20939Y244843D01*
X21064Y244881D01*
X21190Y244916D01*
X21316Y244947D01*
X21444Y244975D01*
X21572Y244999D01*
X21701Y245019D01*
X21831Y245035D01*
X21961Y245048D01*
X22091Y245058D01*
X22221Y245063D01*
X22352Y245065D01*
X22352Y241960D02*
X22483Y241962D01*
X22613Y241967D01*
X22743Y241977D01*
X22873Y241990D01*
X23003Y242006D01*
X23132Y242026D01*
X23260Y242050D01*
X23387Y242078D01*
X23514Y242109D01*
X23640Y242144D01*
X23765Y242182D01*
X23889Y242224D01*
X24011Y242269D01*
X24132Y242318D01*
X24252Y242370D01*
X24370Y242426D01*
X24430Y242449D01*
X24490Y242475D01*
X24547Y242504D01*
X24603Y242537D01*
X24657Y242573D01*
X24709Y242611D01*
X24759Y242653D01*
X24806Y242697D01*
X24851Y242744D01*
X24893Y242794D01*
X24932Y242845D01*
X24968Y242899D01*
X25001Y242955D01*
X25031Y243012D01*
X25058Y243071D01*
X25081Y243132D01*
X25101Y243193D01*
X25117Y243256D01*
X25130Y243320D01*
X25139Y243384D01*
X25144Y243448D01*
X25146Y243513D01*
X24370Y244599D02*
X24252Y244655D01*
X24132Y244707D01*
X24011Y244756D01*
X23889Y244801D01*
X23765Y244843D01*
X23640Y244881D01*
X23514Y244916D01*
X23388Y244947D01*
X23260Y244975D01*
X23132Y244999D01*
X23003Y245019D01*
X22873Y245035D01*
X22743Y245048D01*
X22613Y245058D01*
X22483Y245063D01*
X22352Y245065D01*
X24370Y244600D02*
X24430Y244577D01*
X24490Y244551D01*
X24547Y244522D01*
X24603Y244489D01*
X24657Y244453D01*
X24709Y244415D01*
X24759Y244373D01*
X24806Y244329D01*
X24851Y244282D01*
X24893Y244232D01*
X24932Y244181D01*
X24968Y244127D01*
X25001Y244071D01*
X25031Y244014D01*
X25058Y243955D01*
X25081Y243894D01*
X25101Y243833D01*
X25117Y243770D01*
X25130Y243706D01*
X25139Y243642D01*
X25144Y243578D01*
X25146Y243513D01*
X23904Y242271D02*
X20800Y244754D01*
X19558Y247641D02*
X25146Y247641D01*
X23283Y247641D02*
X21421Y250124D01*
X22507Y248727D02*
X25146Y250124D01*
D20*
X48260Y97180D03*
X48260Y116180D03*
D11*
X43942Y77551D02*
X38354Y77551D01*
X38354Y79104D01*
X38356Y79181D01*
X38362Y79259D01*
X38371Y79335D01*
X38385Y79412D01*
X38402Y79487D01*
X38423Y79561D01*
X38448Y79635D01*
X38476Y79707D01*
X38508Y79777D01*
X38543Y79846D01*
X38582Y79913D01*
X38624Y79978D01*
X38669Y80041D01*
X38717Y80102D01*
X38768Y80160D01*
X38822Y80215D01*
X38879Y80268D01*
X38938Y80317D01*
X39000Y80364D01*
X39064Y80408D01*
X39130Y80448D01*
X39198Y80485D01*
X39268Y80519D01*
X39339Y80549D01*
X39412Y80575D01*
X39486Y80598D01*
X39561Y80617D01*
X39636Y80632D01*
X39713Y80644D01*
X39790Y80652D01*
X39867Y80656D01*
X39945Y80656D01*
X40022Y80652D01*
X40099Y80644D01*
X40176Y80632D01*
X40251Y80617D01*
X40326Y80598D01*
X40400Y80575D01*
X40473Y80549D01*
X40544Y80519D01*
X40614Y80485D01*
X40682Y80448D01*
X40748Y80408D01*
X40812Y80364D01*
X40874Y80317D01*
X40933Y80268D01*
X40990Y80215D01*
X41044Y80160D01*
X41095Y80102D01*
X41143Y80041D01*
X41188Y79978D01*
X41230Y79913D01*
X41269Y79846D01*
X41304Y79777D01*
X41336Y79707D01*
X41364Y79635D01*
X41389Y79561D01*
X41410Y79487D01*
X41427Y79412D01*
X41441Y79335D01*
X41450Y79259D01*
X41456Y79181D01*
X41458Y79104D01*
X41458Y77551D01*
X41458Y79414D02*
X43942Y80656D01*
X39751Y86106D02*
X39678Y86104D01*
X39605Y86098D01*
X39532Y86089D01*
X39461Y86075D01*
X39389Y86058D01*
X39319Y86038D01*
X39250Y86013D01*
X39183Y85985D01*
X39117Y85954D01*
X39053Y85919D01*
X38990Y85881D01*
X38930Y85839D01*
X38872Y85795D01*
X38816Y85747D01*
X38763Y85697D01*
X38713Y85644D01*
X38665Y85588D01*
X38621Y85530D01*
X38579Y85470D01*
X38541Y85408D01*
X38506Y85343D01*
X38475Y85277D01*
X38447Y85210D01*
X38422Y85141D01*
X38402Y85071D01*
X38385Y84999D01*
X38371Y84928D01*
X38362Y84855D01*
X38356Y84782D01*
X38354Y84709D01*
X38356Y84625D01*
X38362Y84542D01*
X38371Y84459D01*
X38385Y84376D01*
X38402Y84295D01*
X38424Y84214D01*
X38449Y84134D01*
X38477Y84056D01*
X38509Y83978D01*
X38545Y83903D01*
X38584Y83829D01*
X38627Y83757D01*
X38673Y83687D01*
X38722Y83620D01*
X38775Y83554D01*
X38830Y83492D01*
X38888Y83432D01*
X38949Y83374D01*
X39012Y83320D01*
X39078Y83268D01*
X39146Y83220D01*
X39217Y83175D01*
X39289Y83133D01*
X39364Y83095D01*
X39440Y83060D01*
X39517Y83029D01*
X39596Y83001D01*
X40837Y85640D02*
X40784Y85694D01*
X40727Y85745D01*
X40668Y85793D01*
X40607Y85838D01*
X40544Y85879D01*
X40478Y85918D01*
X40411Y85953D01*
X40342Y85985D01*
X40271Y86013D01*
X40200Y86037D01*
X40127Y86058D01*
X40053Y86075D01*
X39978Y86089D01*
X39903Y86098D01*
X39827Y86104D01*
X39751Y86106D01*
X40838Y85640D02*
X43942Y83002D01*
X43942Y86106D01*
X36896Y133124D02*
X38448Y134366D01*
X38448Y128778D01*
X36896Y128778D02*
X40000Y128778D01*
X42382Y131572D02*
X42384Y131703D01*
X42389Y131833D01*
X42399Y131963D01*
X42412Y132093D01*
X42428Y132223D01*
X42448Y132352D01*
X42472Y132480D01*
X42500Y132607D01*
X42531Y132734D01*
X42566Y132860D01*
X42604Y132985D01*
X42646Y133109D01*
X42691Y133231D01*
X42740Y133352D01*
X42792Y133472D01*
X42848Y133590D01*
X42847Y133590D02*
X42870Y133650D01*
X42896Y133710D01*
X42925Y133767D01*
X42958Y133823D01*
X42994Y133877D01*
X43032Y133929D01*
X43074Y133979D01*
X43118Y134026D01*
X43165Y134071D01*
X43215Y134113D01*
X43266Y134152D01*
X43320Y134188D01*
X43376Y134221D01*
X43433Y134251D01*
X43492Y134278D01*
X43553Y134301D01*
X43614Y134321D01*
X43677Y134337D01*
X43741Y134350D01*
X43805Y134359D01*
X43869Y134364D01*
X43934Y134366D01*
X43999Y134364D01*
X44063Y134359D01*
X44127Y134350D01*
X44191Y134337D01*
X44254Y134321D01*
X44315Y134301D01*
X44376Y134278D01*
X44435Y134251D01*
X44492Y134221D01*
X44548Y134188D01*
X44602Y134152D01*
X44653Y134113D01*
X44703Y134071D01*
X44750Y134026D01*
X44794Y133979D01*
X44836Y133929D01*
X44874Y133877D01*
X44910Y133823D01*
X44943Y133767D01*
X44972Y133710D01*
X44998Y133650D01*
X45021Y133590D01*
X45077Y133472D01*
X45129Y133352D01*
X45178Y133231D01*
X45223Y133109D01*
X45265Y132985D01*
X45303Y132860D01*
X45338Y132734D01*
X45369Y132608D01*
X45397Y132480D01*
X45421Y132352D01*
X45441Y132223D01*
X45457Y132093D01*
X45470Y131963D01*
X45480Y131833D01*
X45485Y131703D01*
X45487Y131572D01*
X42382Y131572D02*
X42384Y131441D01*
X42389Y131311D01*
X42399Y131181D01*
X42412Y131051D01*
X42428Y130921D01*
X42448Y130792D01*
X42472Y130664D01*
X42500Y130537D01*
X42531Y130410D01*
X42566Y130284D01*
X42604Y130159D01*
X42646Y130035D01*
X42691Y129913D01*
X42740Y129792D01*
X42792Y129672D01*
X42848Y129554D01*
X42847Y129554D02*
X42870Y129494D01*
X42896Y129434D01*
X42925Y129377D01*
X42958Y129321D01*
X42994Y129267D01*
X43032Y129215D01*
X43074Y129165D01*
X43118Y129118D01*
X43165Y129073D01*
X43215Y129031D01*
X43266Y128992D01*
X43320Y128956D01*
X43376Y128923D01*
X43433Y128893D01*
X43492Y128866D01*
X43553Y128843D01*
X43614Y128823D01*
X43677Y128807D01*
X43741Y128794D01*
X43805Y128785D01*
X43869Y128780D01*
X43934Y128778D01*
X45021Y129554D02*
X45077Y129672D01*
X45129Y129792D01*
X45178Y129913D01*
X45223Y130035D01*
X45265Y130159D01*
X45303Y130284D01*
X45338Y130410D01*
X45369Y130536D01*
X45397Y130664D01*
X45421Y130792D01*
X45441Y130921D01*
X45457Y131051D01*
X45470Y131181D01*
X45480Y131311D01*
X45485Y131441D01*
X45487Y131572D01*
X45021Y129554D02*
X44998Y129494D01*
X44972Y129434D01*
X44943Y129377D01*
X44910Y129321D01*
X44874Y129267D01*
X44836Y129215D01*
X44794Y129165D01*
X44750Y129118D01*
X44703Y129073D01*
X44653Y129031D01*
X44602Y128992D01*
X44548Y128956D01*
X44492Y128923D01*
X44435Y128893D01*
X44376Y128866D01*
X44315Y128843D01*
X44254Y128823D01*
X44191Y128807D01*
X44127Y128794D01*
X44063Y128785D01*
X43999Y128780D01*
X43934Y128778D01*
X42693Y130020D02*
X45176Y133124D01*
X48062Y134366D02*
X48062Y128778D01*
X48062Y130641D02*
X50546Y132503D01*
X49149Y131417D02*
X50546Y128778D01*
D21*
X141940Y66340D02*
X141940Y49130D01*
X141940Y66340D02*
X134760Y73520D01*
X118860Y73520D01*
X111240Y73520D02*
X90780Y93980D01*
X111240Y73520D02*
X118860Y73520D01*
X204140Y148280D02*
X204140Y168280D01*
X167940Y60960D02*
X167940Y49130D01*
X167940Y60960D02*
X173020Y66040D01*
X193040Y66040D02*
X204140Y77140D01*
X204140Y148280D01*
X193040Y66040D02*
X173020Y66040D01*
X134480Y119520D02*
X118860Y119520D01*
X118720Y119380D02*
X90780Y119380D01*
X118720Y119380D02*
X118860Y119520D01*
X90780Y119380D02*
X71780Y93980D01*
X134480Y119520D02*
X152400Y101600D01*
X152400Y86660D02*
X173020Y66040D01*
X152400Y86660D02*
X152400Y101600D01*
X71780Y93980D02*
X71780Y80620D01*
X81690Y70710D02*
X93120Y70710D01*
X81690Y70710D02*
X71780Y80620D01*
X66680Y248280D02*
X44140Y248280D01*
X76200Y238760D02*
X76200Y157480D01*
X76200Y238760D02*
X66680Y248280D01*
X76200Y157480D02*
X67000Y148280D01*
X167640Y124980D02*
X167640Y172720D01*
X183200Y188280D02*
X204140Y188280D01*
X183200Y188280D02*
X167640Y172720D01*
X67000Y148280D02*
X44140Y148280D01*
X67000Y148280D02*
X144340Y148280D01*
X167640Y124980D01*
X180860Y111760D01*
X180860Y96520D01*
X49120Y96320D02*
X49120Y70710D01*
X49120Y96320D02*
X48260Y97180D01*
X52680Y97180D01*
X53340Y96520D01*
X71780Y114960D01*
X71780Y119380D01*
X71780Y120640D01*
X44140Y148280D01*
X23876Y228016D02*
X44140Y248280D01*
X23876Y228016D02*
X23876Y220320D01*
X44140Y168280D02*
X32028Y156168D01*
X32028Y49252D02*
X40640Y40640D01*
X55880Y40640D01*
X32028Y114300D02*
X32028Y156168D01*
X32028Y114300D02*
X32028Y49252D01*
X55880Y40640D02*
X72950Y57710D01*
X93120Y57710D01*
X48260Y116180D02*
X33908Y116180D01*
X32028Y114300D01*
X93120Y51210D02*
X93120Y37240D01*
X37484Y33020D02*
X24408Y46096D01*
X88900Y33020D02*
X93120Y37240D01*
X88900Y33020D02*
X37484Y33020D01*
X24408Y168548D02*
X29530Y173670D01*
X44140Y188280D01*
X24408Y168548D02*
X24408Y46096D01*
X22860Y180340D02*
X22860Y201320D01*
X22860Y180340D02*
X29530Y173670D01*
M02*
