%
M48
M72
T01C0.01969
T02C0.02362
T03C0.03150
T04C0.03200
T05C0.03937
T06C0.05000
%
T01
X58000Y35300
X61882Y42300
X72118Y35300
T02
X64441Y65800
T03
X93000Y124550
X89516Y130800
X93000Y137050
T04
X75000Y130800
X65000Y130800
X48000Y131800
X38000Y131800
X18000Y163800
X8000Y163800
X8000Y98800
X18000Y98800
T05
X35378Y42178
X35378Y50052
X35378Y57926
X35378Y65800
X35378Y73674
X35378Y81548
X35378Y89422
X35378Y97296
X98370Y97296
X98370Y89422
X98370Y81548
X98370Y73674
X98370Y65800
X98370Y57926
X98370Y50052
X98370Y42178
T06
X38000Y153800
X38000Y163800
X38000Y173800
M30
