G75*
%MOIN*%
%OFA0B0*%
%FSLAX25Y25*%
%IPPOS*%
%LPD*%
%AMOC8*
5,1,8,0,0,1.08239X$1,22.5*
%
%ADD10C,0.05200*%
%ADD11C,0.05906*%
%ADD12C,0.02400*%
%ADD13C,0.03962*%
D10*
X0039167Y0033532D02*
X0039167Y0038732D01*
X0049167Y0038732D02*
X0049167Y0033532D01*
X0059167Y0033532D02*
X0059167Y0038732D01*
X0069167Y0038732D02*
X0069167Y0033532D01*
X0079167Y0033532D02*
X0079167Y0038732D01*
X0101567Y0046132D02*
X0106767Y0046132D01*
X0106767Y0056132D02*
X0101567Y0056132D01*
X0101567Y0066132D02*
X0106767Y0066132D01*
X0106767Y0076132D02*
X0101567Y0076132D01*
X0101567Y0086132D02*
X0106767Y0086132D01*
X0106767Y0096132D02*
X0101567Y0096132D01*
X0101567Y0106132D02*
X0106767Y0106132D01*
X0106767Y0116132D02*
X0101567Y0116132D01*
X0101567Y0126132D02*
X0106767Y0126132D01*
X0016767Y0126132D02*
X0011567Y0126132D01*
X0011567Y0116132D02*
X0016767Y0116132D01*
X0016767Y0106132D02*
X0011567Y0106132D01*
X0011567Y0096132D02*
X0016767Y0096132D01*
X0016767Y0086132D02*
X0011567Y0086132D01*
X0011567Y0076132D02*
X0016767Y0076132D01*
X0016767Y0066132D02*
X0011567Y0066132D01*
X0011567Y0056132D02*
X0016767Y0056132D01*
X0016767Y0046132D02*
X0011567Y0046132D01*
D11*
X0027671Y0053573D03*
X0027671Y0061447D03*
X0027671Y0069321D03*
X0027671Y0077195D03*
X0027671Y0085069D03*
X0027671Y0092943D03*
X0027671Y0100817D03*
X0027671Y0108691D03*
X0090663Y0108691D03*
X0090663Y0100817D03*
X0090663Y0092943D03*
X0090663Y0085069D03*
X0090663Y0077195D03*
X0090663Y0069321D03*
X0090663Y0061447D03*
X0090663Y0053573D03*
D12*
X0096667Y0042333D02*
X0096667Y0068632D01*
X0104167Y0076132D01*
X0090663Y0100817D02*
X0084852Y0100817D01*
X0069167Y0085132D01*
X0069167Y0036132D01*
X0059167Y0036132D02*
X0059167Y0083195D01*
X0059230Y0083195D01*
X0084726Y0108691D01*
X0090663Y0108691D01*
X0039167Y0103916D02*
X0016951Y0126132D01*
X0014167Y0126132D01*
X0039167Y0103916D02*
X0039167Y0036132D01*
X0039167Y0013007D01*
D13*
X0039167Y0013007D03*
X0096667Y0042333D03*
M02*
