%
M48
M72
T01C0.02362
T02C0.02756
T03C0.03200
T04C0.03543
%
T01
X39167Y13007
X96667Y42333
T02
X90663Y53573
X90663Y61447
X90663Y69321
X90663Y77195
X90663Y85069
X90663Y92943
X90663Y100817
X90663Y108691
X27671Y108691
X27671Y100817
X27671Y92943
X27671Y85069
X27671Y77195
X27671Y69321
X27671Y61447
X27671Y53573
T03
X14167Y56132
X14167Y66132
X14167Y76132
X14167Y86132
X14167Y96132
X14167Y106132
X14167Y116132
X14167Y126132
X14167Y46132
X39167Y36132
X49167Y36132
X59167Y36132
X69167Y36132
X79167Y36132
X104167Y46132
X104167Y56132
X104167Y66132
X104167Y76132
X104167Y86132
X104167Y96132
X104167Y106132
X104167Y116132
X104167Y126132
T04
X96667Y25787
X96667Y13976
M30
