%
M48
M72
T01C0.02362
T02C0.02756
T03C0.03543
T04C0.04000
%
T01
X34867Y14007
X87367Y37333
T02
X80457Y53573
X80457Y61447
X80457Y69321
X80457Y77195
X80457Y85069
X80457Y92943
X80457Y100817
X80457Y108691
X29276Y108691
X29276Y100817
X29276Y92943
X29276Y85069
X29276Y77195
X29276Y69321
X29276Y61447
X29276Y53573
T03
X87367Y23287
X87367Y11476
T04
X74867Y36132
X64867Y36132
X54867Y36132
X44867Y36132
X34867Y36132
X14867Y46132
X14867Y56132
X14867Y66132
X14867Y76132
X14867Y86132
X14867Y96132
X14867Y106132
X14867Y116132
X14867Y126132
X94867Y126132
X94867Y116132
X94867Y106132
X94867Y96132
X94867Y86132
X94867Y76132
X94867Y66132
X94867Y56132
X94867Y46132
M30
