%
M48
M72
T01C0.02362
T02C0.02756
T03C0.03543
T04C0.04000
%
T01
X34300Y14007
X86800Y37333
T02
X79891Y53573
X79891Y61447
X79891Y69321
X79891Y77195
X79891Y85069
X79891Y92943
X79891Y100817
X79891Y108691
X28709Y108691
X28709Y100817
X28709Y92943
X28709Y85069
X28709Y77195
X28709Y69321
X28709Y61447
X28709Y53573
T03
X86800Y23287
X86800Y11476
T04
X74300Y36132
X64300Y36132
X54300Y36132
X44300Y36132
X34300Y36132
X14300Y46132
X14300Y56132
X14300Y66132
X14300Y76132
X14300Y86132
X14300Y96132
X14300Y106132
X14300Y116132
X14300Y126132
X94300Y126132
X94300Y116132
X94300Y106132
X94300Y96132
X94300Y86132
X94300Y76132
X94300Y66132
X94300Y56132
X94300Y46132
M30
