G75*
%MOIN*%
%OFA0B0*%
%FSLAX25Y25*%
%IPPOS*%
%LPD*%
%AMOC8*
5,1,8,0,0,1.08239X$1,22.5*
%
%ADD10C,0.01600*%
%ADD11C,0.00000*%
D10*
X0007367Y0003632D02*
X0002367Y0008632D01*
X0002367Y0043632D01*
X0008617Y0049882D01*
X0008617Y0130132D01*
X0012367Y0133632D01*
X0099867Y0133632D01*
X0102367Y0131132D01*
X0102367Y0006132D01*
X0099867Y0003632D01*
X0007367Y0003632D01*
D11*
X0085595Y0011476D02*
X0085597Y0011560D01*
X0085603Y0011643D01*
X0085613Y0011726D01*
X0085627Y0011809D01*
X0085644Y0011891D01*
X0085666Y0011972D01*
X0085691Y0012051D01*
X0085720Y0012130D01*
X0085753Y0012207D01*
X0085789Y0012282D01*
X0085829Y0012356D01*
X0085872Y0012428D01*
X0085919Y0012497D01*
X0085969Y0012564D01*
X0086022Y0012629D01*
X0086078Y0012691D01*
X0086136Y0012751D01*
X0086198Y0012808D01*
X0086262Y0012861D01*
X0086329Y0012912D01*
X0086398Y0012959D01*
X0086469Y0013004D01*
X0086542Y0013044D01*
X0086617Y0013081D01*
X0086694Y0013115D01*
X0086772Y0013145D01*
X0086851Y0013171D01*
X0086932Y0013194D01*
X0087014Y0013212D01*
X0087096Y0013227D01*
X0087179Y0013238D01*
X0087262Y0013245D01*
X0087346Y0013248D01*
X0087430Y0013247D01*
X0087513Y0013242D01*
X0087597Y0013233D01*
X0087679Y0013220D01*
X0087761Y0013204D01*
X0087842Y0013183D01*
X0087923Y0013159D01*
X0088001Y0013131D01*
X0088079Y0013099D01*
X0088155Y0013063D01*
X0088229Y0013024D01*
X0088301Y0012982D01*
X0088371Y0012936D01*
X0088439Y0012887D01*
X0088504Y0012835D01*
X0088567Y0012780D01*
X0088627Y0012722D01*
X0088685Y0012661D01*
X0088739Y0012597D01*
X0088791Y0012531D01*
X0088839Y0012463D01*
X0088884Y0012392D01*
X0088925Y0012319D01*
X0088964Y0012245D01*
X0088998Y0012169D01*
X0089029Y0012091D01*
X0089056Y0012012D01*
X0089080Y0011931D01*
X0089099Y0011850D01*
X0089115Y0011768D01*
X0089127Y0011685D01*
X0089135Y0011601D01*
X0089139Y0011518D01*
X0089139Y0011434D01*
X0089135Y0011351D01*
X0089127Y0011267D01*
X0089115Y0011184D01*
X0089099Y0011102D01*
X0089080Y0011021D01*
X0089056Y0010940D01*
X0089029Y0010861D01*
X0088998Y0010783D01*
X0088964Y0010707D01*
X0088925Y0010633D01*
X0088884Y0010560D01*
X0088839Y0010489D01*
X0088791Y0010421D01*
X0088739Y0010355D01*
X0088685Y0010291D01*
X0088627Y0010230D01*
X0088567Y0010172D01*
X0088504Y0010117D01*
X0088439Y0010065D01*
X0088371Y0010016D01*
X0088301Y0009970D01*
X0088229Y0009928D01*
X0088155Y0009889D01*
X0088079Y0009853D01*
X0088001Y0009821D01*
X0087923Y0009793D01*
X0087842Y0009769D01*
X0087761Y0009748D01*
X0087679Y0009732D01*
X0087597Y0009719D01*
X0087513Y0009710D01*
X0087430Y0009705D01*
X0087346Y0009704D01*
X0087262Y0009707D01*
X0087179Y0009714D01*
X0087096Y0009725D01*
X0087014Y0009740D01*
X0086932Y0009758D01*
X0086851Y0009781D01*
X0086772Y0009807D01*
X0086694Y0009837D01*
X0086617Y0009871D01*
X0086542Y0009908D01*
X0086469Y0009948D01*
X0086398Y0009993D01*
X0086329Y0010040D01*
X0086262Y0010091D01*
X0086198Y0010144D01*
X0086136Y0010201D01*
X0086078Y0010261D01*
X0086022Y0010323D01*
X0085969Y0010388D01*
X0085919Y0010455D01*
X0085872Y0010524D01*
X0085829Y0010596D01*
X0085789Y0010670D01*
X0085753Y0010745D01*
X0085720Y0010822D01*
X0085691Y0010901D01*
X0085666Y0010980D01*
X0085644Y0011061D01*
X0085627Y0011143D01*
X0085613Y0011226D01*
X0085603Y0011309D01*
X0085597Y0011392D01*
X0085595Y0011476D01*
X0085595Y0023287D02*
X0085597Y0023371D01*
X0085603Y0023454D01*
X0085613Y0023537D01*
X0085627Y0023620D01*
X0085644Y0023702D01*
X0085666Y0023783D01*
X0085691Y0023862D01*
X0085720Y0023941D01*
X0085753Y0024018D01*
X0085789Y0024093D01*
X0085829Y0024167D01*
X0085872Y0024239D01*
X0085919Y0024308D01*
X0085969Y0024375D01*
X0086022Y0024440D01*
X0086078Y0024502D01*
X0086136Y0024562D01*
X0086198Y0024619D01*
X0086262Y0024672D01*
X0086329Y0024723D01*
X0086398Y0024770D01*
X0086469Y0024815D01*
X0086542Y0024855D01*
X0086617Y0024892D01*
X0086694Y0024926D01*
X0086772Y0024956D01*
X0086851Y0024982D01*
X0086932Y0025005D01*
X0087014Y0025023D01*
X0087096Y0025038D01*
X0087179Y0025049D01*
X0087262Y0025056D01*
X0087346Y0025059D01*
X0087430Y0025058D01*
X0087513Y0025053D01*
X0087597Y0025044D01*
X0087679Y0025031D01*
X0087761Y0025015D01*
X0087842Y0024994D01*
X0087923Y0024970D01*
X0088001Y0024942D01*
X0088079Y0024910D01*
X0088155Y0024874D01*
X0088229Y0024835D01*
X0088301Y0024793D01*
X0088371Y0024747D01*
X0088439Y0024698D01*
X0088504Y0024646D01*
X0088567Y0024591D01*
X0088627Y0024533D01*
X0088685Y0024472D01*
X0088739Y0024408D01*
X0088791Y0024342D01*
X0088839Y0024274D01*
X0088884Y0024203D01*
X0088925Y0024130D01*
X0088964Y0024056D01*
X0088998Y0023980D01*
X0089029Y0023902D01*
X0089056Y0023823D01*
X0089080Y0023742D01*
X0089099Y0023661D01*
X0089115Y0023579D01*
X0089127Y0023496D01*
X0089135Y0023412D01*
X0089139Y0023329D01*
X0089139Y0023245D01*
X0089135Y0023162D01*
X0089127Y0023078D01*
X0089115Y0022995D01*
X0089099Y0022913D01*
X0089080Y0022832D01*
X0089056Y0022751D01*
X0089029Y0022672D01*
X0088998Y0022594D01*
X0088964Y0022518D01*
X0088925Y0022444D01*
X0088884Y0022371D01*
X0088839Y0022300D01*
X0088791Y0022232D01*
X0088739Y0022166D01*
X0088685Y0022102D01*
X0088627Y0022041D01*
X0088567Y0021983D01*
X0088504Y0021928D01*
X0088439Y0021876D01*
X0088371Y0021827D01*
X0088301Y0021781D01*
X0088229Y0021739D01*
X0088155Y0021700D01*
X0088079Y0021664D01*
X0088001Y0021632D01*
X0087923Y0021604D01*
X0087842Y0021580D01*
X0087761Y0021559D01*
X0087679Y0021543D01*
X0087597Y0021530D01*
X0087513Y0021521D01*
X0087430Y0021516D01*
X0087346Y0021515D01*
X0087262Y0021518D01*
X0087179Y0021525D01*
X0087096Y0021536D01*
X0087014Y0021551D01*
X0086932Y0021569D01*
X0086851Y0021592D01*
X0086772Y0021618D01*
X0086694Y0021648D01*
X0086617Y0021682D01*
X0086542Y0021719D01*
X0086469Y0021759D01*
X0086398Y0021804D01*
X0086329Y0021851D01*
X0086262Y0021902D01*
X0086198Y0021955D01*
X0086136Y0022012D01*
X0086078Y0022072D01*
X0086022Y0022134D01*
X0085969Y0022199D01*
X0085919Y0022266D01*
X0085872Y0022335D01*
X0085829Y0022407D01*
X0085789Y0022481D01*
X0085753Y0022556D01*
X0085720Y0022633D01*
X0085691Y0022712D01*
X0085666Y0022791D01*
X0085644Y0022872D01*
X0085627Y0022954D01*
X0085613Y0023037D01*
X0085603Y0023120D01*
X0085597Y0023203D01*
X0085595Y0023287D01*
M02*
