G75*
%MOIN*%
%OFA0B0*%
%FSLAX25Y25*%
%IPPOS*%
%LPD*%
%AMOC8*
5,1,8,0,0,1.08239X$1,22.5*
%
%ADD10C,0.01600*%
%ADD11C,0.00000*%
D10*
X0006667Y0008632D02*
X0011667Y0003632D01*
X0106667Y0003632D01*
X0111667Y0008632D01*
X0111667Y0131132D01*
X0109167Y0133632D01*
X0009167Y0133632D01*
X0006667Y0131132D01*
X0006667Y0008632D01*
D11*
X0094895Y0013976D02*
X0094897Y0014060D01*
X0094903Y0014143D01*
X0094913Y0014226D01*
X0094927Y0014309D01*
X0094944Y0014391D01*
X0094966Y0014472D01*
X0094991Y0014551D01*
X0095020Y0014630D01*
X0095053Y0014707D01*
X0095089Y0014782D01*
X0095129Y0014856D01*
X0095172Y0014928D01*
X0095219Y0014997D01*
X0095269Y0015064D01*
X0095322Y0015129D01*
X0095378Y0015191D01*
X0095436Y0015251D01*
X0095498Y0015308D01*
X0095562Y0015361D01*
X0095629Y0015412D01*
X0095698Y0015459D01*
X0095769Y0015504D01*
X0095842Y0015544D01*
X0095917Y0015581D01*
X0095994Y0015615D01*
X0096072Y0015645D01*
X0096151Y0015671D01*
X0096232Y0015694D01*
X0096314Y0015712D01*
X0096396Y0015727D01*
X0096479Y0015738D01*
X0096562Y0015745D01*
X0096646Y0015748D01*
X0096730Y0015747D01*
X0096813Y0015742D01*
X0096897Y0015733D01*
X0096979Y0015720D01*
X0097061Y0015704D01*
X0097142Y0015683D01*
X0097223Y0015659D01*
X0097301Y0015631D01*
X0097379Y0015599D01*
X0097455Y0015563D01*
X0097529Y0015524D01*
X0097601Y0015482D01*
X0097671Y0015436D01*
X0097739Y0015387D01*
X0097804Y0015335D01*
X0097867Y0015280D01*
X0097927Y0015222D01*
X0097985Y0015161D01*
X0098039Y0015097D01*
X0098091Y0015031D01*
X0098139Y0014963D01*
X0098184Y0014892D01*
X0098225Y0014819D01*
X0098264Y0014745D01*
X0098298Y0014669D01*
X0098329Y0014591D01*
X0098356Y0014512D01*
X0098380Y0014431D01*
X0098399Y0014350D01*
X0098415Y0014268D01*
X0098427Y0014185D01*
X0098435Y0014101D01*
X0098439Y0014018D01*
X0098439Y0013934D01*
X0098435Y0013851D01*
X0098427Y0013767D01*
X0098415Y0013684D01*
X0098399Y0013602D01*
X0098380Y0013521D01*
X0098356Y0013440D01*
X0098329Y0013361D01*
X0098298Y0013283D01*
X0098264Y0013207D01*
X0098225Y0013133D01*
X0098184Y0013060D01*
X0098139Y0012989D01*
X0098091Y0012921D01*
X0098039Y0012855D01*
X0097985Y0012791D01*
X0097927Y0012730D01*
X0097867Y0012672D01*
X0097804Y0012617D01*
X0097739Y0012565D01*
X0097671Y0012516D01*
X0097601Y0012470D01*
X0097529Y0012428D01*
X0097455Y0012389D01*
X0097379Y0012353D01*
X0097301Y0012321D01*
X0097223Y0012293D01*
X0097142Y0012269D01*
X0097061Y0012248D01*
X0096979Y0012232D01*
X0096897Y0012219D01*
X0096813Y0012210D01*
X0096730Y0012205D01*
X0096646Y0012204D01*
X0096562Y0012207D01*
X0096479Y0012214D01*
X0096396Y0012225D01*
X0096314Y0012240D01*
X0096232Y0012258D01*
X0096151Y0012281D01*
X0096072Y0012307D01*
X0095994Y0012337D01*
X0095917Y0012371D01*
X0095842Y0012408D01*
X0095769Y0012448D01*
X0095698Y0012493D01*
X0095629Y0012540D01*
X0095562Y0012591D01*
X0095498Y0012644D01*
X0095436Y0012701D01*
X0095378Y0012761D01*
X0095322Y0012823D01*
X0095269Y0012888D01*
X0095219Y0012955D01*
X0095172Y0013024D01*
X0095129Y0013096D01*
X0095089Y0013170D01*
X0095053Y0013245D01*
X0095020Y0013322D01*
X0094991Y0013401D01*
X0094966Y0013480D01*
X0094944Y0013561D01*
X0094927Y0013643D01*
X0094913Y0013726D01*
X0094903Y0013809D01*
X0094897Y0013892D01*
X0094895Y0013976D01*
X0094895Y0025787D02*
X0094897Y0025871D01*
X0094903Y0025954D01*
X0094913Y0026037D01*
X0094927Y0026120D01*
X0094944Y0026202D01*
X0094966Y0026283D01*
X0094991Y0026362D01*
X0095020Y0026441D01*
X0095053Y0026518D01*
X0095089Y0026593D01*
X0095129Y0026667D01*
X0095172Y0026739D01*
X0095219Y0026808D01*
X0095269Y0026875D01*
X0095322Y0026940D01*
X0095378Y0027002D01*
X0095436Y0027062D01*
X0095498Y0027119D01*
X0095562Y0027172D01*
X0095629Y0027223D01*
X0095698Y0027270D01*
X0095769Y0027315D01*
X0095842Y0027355D01*
X0095917Y0027392D01*
X0095994Y0027426D01*
X0096072Y0027456D01*
X0096151Y0027482D01*
X0096232Y0027505D01*
X0096314Y0027523D01*
X0096396Y0027538D01*
X0096479Y0027549D01*
X0096562Y0027556D01*
X0096646Y0027559D01*
X0096730Y0027558D01*
X0096813Y0027553D01*
X0096897Y0027544D01*
X0096979Y0027531D01*
X0097061Y0027515D01*
X0097142Y0027494D01*
X0097223Y0027470D01*
X0097301Y0027442D01*
X0097379Y0027410D01*
X0097455Y0027374D01*
X0097529Y0027335D01*
X0097601Y0027293D01*
X0097671Y0027247D01*
X0097739Y0027198D01*
X0097804Y0027146D01*
X0097867Y0027091D01*
X0097927Y0027033D01*
X0097985Y0026972D01*
X0098039Y0026908D01*
X0098091Y0026842D01*
X0098139Y0026774D01*
X0098184Y0026703D01*
X0098225Y0026630D01*
X0098264Y0026556D01*
X0098298Y0026480D01*
X0098329Y0026402D01*
X0098356Y0026323D01*
X0098380Y0026242D01*
X0098399Y0026161D01*
X0098415Y0026079D01*
X0098427Y0025996D01*
X0098435Y0025912D01*
X0098439Y0025829D01*
X0098439Y0025745D01*
X0098435Y0025662D01*
X0098427Y0025578D01*
X0098415Y0025495D01*
X0098399Y0025413D01*
X0098380Y0025332D01*
X0098356Y0025251D01*
X0098329Y0025172D01*
X0098298Y0025094D01*
X0098264Y0025018D01*
X0098225Y0024944D01*
X0098184Y0024871D01*
X0098139Y0024800D01*
X0098091Y0024732D01*
X0098039Y0024666D01*
X0097985Y0024602D01*
X0097927Y0024541D01*
X0097867Y0024483D01*
X0097804Y0024428D01*
X0097739Y0024376D01*
X0097671Y0024327D01*
X0097601Y0024281D01*
X0097529Y0024239D01*
X0097455Y0024200D01*
X0097379Y0024164D01*
X0097301Y0024132D01*
X0097223Y0024104D01*
X0097142Y0024080D01*
X0097061Y0024059D01*
X0096979Y0024043D01*
X0096897Y0024030D01*
X0096813Y0024021D01*
X0096730Y0024016D01*
X0096646Y0024015D01*
X0096562Y0024018D01*
X0096479Y0024025D01*
X0096396Y0024036D01*
X0096314Y0024051D01*
X0096232Y0024069D01*
X0096151Y0024092D01*
X0096072Y0024118D01*
X0095994Y0024148D01*
X0095917Y0024182D01*
X0095842Y0024219D01*
X0095769Y0024259D01*
X0095698Y0024304D01*
X0095629Y0024351D01*
X0095562Y0024402D01*
X0095498Y0024455D01*
X0095436Y0024512D01*
X0095378Y0024572D01*
X0095322Y0024634D01*
X0095269Y0024699D01*
X0095219Y0024766D01*
X0095172Y0024835D01*
X0095129Y0024907D01*
X0095089Y0024981D01*
X0095053Y0025056D01*
X0095020Y0025133D01*
X0094991Y0025212D01*
X0094966Y0025291D01*
X0094944Y0025372D01*
X0094927Y0025454D01*
X0094913Y0025537D01*
X0094903Y0025620D01*
X0094897Y0025703D01*
X0094895Y0025787D01*
M02*
