G75*
%MOIN*%
%OFA0B0*%
%FSLAX25Y25*%
%IPPOS*%
%LPD*%
%AMOC8*
5,1,8,0,0,1.08239X$1,22.5*
%
%ADD10C,0.06800*%
%ADD11C,0.06706*%
%ADD12R,0.02375X0.06115*%
%ADD13R,0.09068X0.07099*%
%ADD14R,0.08280X0.07887*%
%ADD15R,0.06706X0.06706*%
%ADD16C,0.04343*%
%ADD17R,0.14580X0.09461*%
%ADD18R,0.05524X0.09461*%
%ADD19R,0.05524X0.03950*%
%ADD20R,0.03950X0.05524*%
%ADD21C,0.04762*%
D10*
X0034867Y0033132D02*
X0034867Y0039132D01*
X0044867Y0039132D02*
X0044867Y0033132D01*
X0054867Y0033132D02*
X0054867Y0039132D01*
X0064867Y0039132D02*
X0064867Y0033132D01*
X0074867Y0033132D02*
X0074867Y0039132D01*
X0091867Y0046132D02*
X0097867Y0046132D01*
X0097867Y0056132D02*
X0091867Y0056132D01*
X0091867Y0066132D02*
X0097867Y0066132D01*
X0097867Y0076132D02*
X0091867Y0076132D01*
X0091867Y0086132D02*
X0097867Y0086132D01*
X0097867Y0096132D02*
X0091867Y0096132D01*
X0091867Y0106132D02*
X0097867Y0106132D01*
X0097867Y0116132D02*
X0091867Y0116132D01*
X0091867Y0126132D02*
X0097867Y0126132D01*
X0017867Y0126132D02*
X0011867Y0126132D01*
X0011867Y0116132D02*
X0017867Y0116132D01*
X0017867Y0106132D02*
X0011867Y0106132D01*
X0011867Y0096132D02*
X0017867Y0096132D01*
X0017867Y0086132D02*
X0011867Y0086132D01*
X0011867Y0076132D02*
X0017867Y0076132D01*
X0017867Y0066132D02*
X0011867Y0066132D01*
X0011867Y0056132D02*
X0017867Y0056132D01*
X0017867Y0046132D02*
X0011867Y0046132D01*
D11*
X0029276Y0053573D03*
X0029276Y0061447D03*
X0029276Y0069321D03*
X0029276Y0077195D03*
X0029276Y0085069D03*
X0029276Y0092943D03*
X0029276Y0100817D03*
X0029276Y0108691D03*
X0080457Y0108691D03*
X0080457Y0100817D03*
X0080457Y0092943D03*
X0080457Y0085069D03*
X0080457Y0077195D03*
X0080457Y0069321D03*
X0080457Y0061447D03*
X0080457Y0053573D03*
D12*
X0059985Y0018474D03*
X0057426Y0018474D03*
X0054867Y0018474D03*
X0052308Y0018474D03*
X0049749Y0018474D03*
D13*
X0042662Y0017982D03*
X0067071Y0017982D03*
D14*
X0069827Y0007943D03*
X0059591Y0007943D03*
X0050142Y0007943D03*
X0039906Y0007943D03*
D15*
X0078508Y0007539D03*
X0078508Y0017382D03*
X0078508Y0027224D03*
X0096225Y0027224D03*
X0096225Y0017382D03*
X0096225Y0007539D03*
D16*
X0087367Y0011476D03*
X0087367Y0023287D03*
D17*
X0019867Y0033337D03*
D18*
X0010812Y0008927D03*
X0019867Y0008927D03*
X0028922Y0008927D03*
D19*
X0009242Y0031026D03*
X0009242Y0038113D03*
D20*
X0037511Y0025069D03*
X0044597Y0025069D03*
D21*
X0034867Y0014007D03*
X0087367Y0037333D03*
M02*
