G75*
%MOIN*%
%OFA0B0*%
%FSLAX25Y25*%
%IPPOS*%
%LPD*%
%AMOC8*
5,1,8,0,0,1.08239X$1,22.5*
%
%ADD10C,0.06800*%
%ADD11C,0.06706*%
%ADD12C,0.04343*%
%ADD13C,0.04762*%
D10*
X0034867Y0033132D02*
X0034867Y0039132D01*
X0044867Y0039132D02*
X0044867Y0033132D01*
X0054867Y0033132D02*
X0054867Y0039132D01*
X0064867Y0039132D02*
X0064867Y0033132D01*
X0074867Y0033132D02*
X0074867Y0039132D01*
X0091867Y0046132D02*
X0097867Y0046132D01*
X0097867Y0056132D02*
X0091867Y0056132D01*
X0091867Y0066132D02*
X0097867Y0066132D01*
X0097867Y0076132D02*
X0091867Y0076132D01*
X0091867Y0086132D02*
X0097867Y0086132D01*
X0097867Y0096132D02*
X0091867Y0096132D01*
X0091867Y0106132D02*
X0097867Y0106132D01*
X0097867Y0116132D02*
X0091867Y0116132D01*
X0091867Y0126132D02*
X0097867Y0126132D01*
X0017867Y0126132D02*
X0011867Y0126132D01*
X0011867Y0116132D02*
X0017867Y0116132D01*
X0017867Y0106132D02*
X0011867Y0106132D01*
X0011867Y0096132D02*
X0017867Y0096132D01*
X0017867Y0086132D02*
X0011867Y0086132D01*
X0011867Y0076132D02*
X0017867Y0076132D01*
X0017867Y0066132D02*
X0011867Y0066132D01*
X0011867Y0056132D02*
X0017867Y0056132D01*
X0017867Y0046132D02*
X0011867Y0046132D01*
D11*
X0029276Y0053573D03*
X0029276Y0061447D03*
X0029276Y0069321D03*
X0029276Y0077195D03*
X0029276Y0085069D03*
X0029276Y0092943D03*
X0029276Y0100817D03*
X0029276Y0108691D03*
X0080457Y0108691D03*
X0080457Y0100817D03*
X0080457Y0092943D03*
X0080457Y0085069D03*
X0080457Y0077195D03*
X0080457Y0069321D03*
X0080457Y0061447D03*
X0080457Y0053573D03*
D12*
X0087367Y0023287D03*
X0087367Y0011476D03*
D13*
X0034867Y0014007D03*
X0087367Y0037333D03*
M02*
