G75*
%MOIN*%
%OFA0B0*%
%FSLAX25Y25*%
%IPPOS*%
%LPD*%
%AMOC8*
5,1,8,0,0,1.08239X$1,22.5*
%
%ADD10C,0.06800*%
%ADD11C,0.06706*%
%ADD12R,0.02375X0.06115*%
%ADD13R,0.09068X0.07099*%
%ADD14R,0.08280X0.07887*%
%ADD15R,0.06706X0.06706*%
%ADD16C,0.04343*%
%ADD17R,0.14580X0.09461*%
%ADD18R,0.05524X0.09461*%
%ADD19R,0.05524X0.03950*%
%ADD20R,0.03950X0.05524*%
%ADD21C,0.04762*%
D10*
X0034300Y0033132D02*
X0034300Y0039132D01*
X0044300Y0039132D02*
X0044300Y0033132D01*
X0054300Y0033132D02*
X0054300Y0039132D01*
X0064300Y0039132D02*
X0064300Y0033132D01*
X0074300Y0033132D02*
X0074300Y0039132D01*
X0091300Y0046132D02*
X0097300Y0046132D01*
X0097300Y0056132D02*
X0091300Y0056132D01*
X0091300Y0066132D02*
X0097300Y0066132D01*
X0097300Y0076132D02*
X0091300Y0076132D01*
X0091300Y0086132D02*
X0097300Y0086132D01*
X0097300Y0096132D02*
X0091300Y0096132D01*
X0091300Y0106132D02*
X0097300Y0106132D01*
X0097300Y0116132D02*
X0091300Y0116132D01*
X0091300Y0126132D02*
X0097300Y0126132D01*
X0017300Y0126132D02*
X0011300Y0126132D01*
X0011300Y0116132D02*
X0017300Y0116132D01*
X0017300Y0106132D02*
X0011300Y0106132D01*
X0011300Y0096132D02*
X0017300Y0096132D01*
X0017300Y0086132D02*
X0011300Y0086132D01*
X0011300Y0076132D02*
X0017300Y0076132D01*
X0017300Y0066132D02*
X0011300Y0066132D01*
X0011300Y0056132D02*
X0017300Y0056132D01*
X0017300Y0046132D02*
X0011300Y0046132D01*
D11*
X0028709Y0053573D03*
X0028709Y0061447D03*
X0028709Y0069321D03*
X0028709Y0077195D03*
X0028709Y0085069D03*
X0028709Y0092943D03*
X0028709Y0100817D03*
X0028709Y0108691D03*
X0079891Y0108691D03*
X0079891Y0100817D03*
X0079891Y0092943D03*
X0079891Y0085069D03*
X0079891Y0077195D03*
X0079891Y0069321D03*
X0079891Y0061447D03*
X0079891Y0053573D03*
D12*
X0059418Y0018474D03*
X0056859Y0018474D03*
X0054300Y0018474D03*
X0051741Y0018474D03*
X0049182Y0018474D03*
D13*
X0042095Y0017982D03*
X0066505Y0017982D03*
D14*
X0069261Y0007943D03*
X0059024Y0007943D03*
X0049576Y0007943D03*
X0039339Y0007943D03*
D15*
X0077942Y0007539D03*
X0077942Y0017382D03*
X0077942Y0027224D03*
X0095658Y0027224D03*
X0095658Y0017382D03*
X0095658Y0007539D03*
D16*
X0086800Y0011476D03*
X0086800Y0023287D03*
D17*
X0019300Y0033337D03*
D18*
X0010245Y0008927D03*
X0019300Y0008927D03*
X0028355Y0008927D03*
D19*
X0008675Y0031026D03*
X0008675Y0038113D03*
D20*
X0036944Y0025069D03*
X0044031Y0025069D03*
D21*
X0034300Y0014007D03*
X0086800Y0037333D03*
M02*
