%
M48
M72
T01C0.02756
T02C0.03200
T03C0.03543
T04C0.03937
%
T01
X14942Y57765
X24942Y57765
X34942Y57765
T02
X24450Y16200
X24450Y26200
T03
X94044Y103200
X105856Y103200
T04
X110070Y70196
X110070Y62322
X110070Y54448
X110070Y46574
X110070Y38700
X110070Y30826
X110070Y22952
X110070Y15078
X47078Y15078
X47078Y22952
X47078Y30826
X47078Y38700
X47078Y46574
X47078Y54448
X47078Y62322
X47078Y70196
M30
