%
M48
M72
T01C0.02756
T02C0.03200
T03C0.03543
T04C0.03937
%
T01
X142742Y117565
X152742Y117565
X162742Y117565
T02
X152250Y76000
X152250Y86000
T03
X221844Y163000
X233656Y163000
T04
X237870Y129996
X237870Y122122
X237870Y114248
X237870Y106374
X237870Y98500
X237870Y90626
X237870Y82752
X237870Y74878
X174878Y74878
X174878Y82752
X174878Y90626
X174878Y98500
X174878Y106374
X174878Y114248
X174878Y122122
X174878Y129996
M30
