G75*
%MOIN*%
%OFA0B0*%
%FSLAX25Y25*%
%IPPOS*%
%LPD*%
%AMOC8*
5,1,8,0,0,1.08239X$1,22.5*
%
%ADD10R,0.03950X0.05524*%
%ADD11R,0.05524X0.03950*%
%ADD12R,0.04737X0.05131*%
%ADD13C,0.08200*%
%ADD14R,0.05131X0.04737*%
%ADD15OC8,0.05556*%
%ADD16C,0.06737*%
%ADD17R,0.06706X0.06706*%
%ADD18C,0.04343*%
%ADD19R,0.02375X0.06115*%
%ADD20R,0.09068X0.07099*%
%ADD21R,0.08280X0.07887*%
%ADD22R,0.09461X0.14580*%
%ADD23R,0.09461X0.05524*%
D10*
X0055907Y0094950D03*
X0062993Y0094950D03*
D11*
X0038325Y0116157D03*
X0038325Y0123243D03*
D12*
X0034450Y0045796D03*
X0034450Y0039104D03*
X0024450Y0039104D03*
X0024450Y0045796D03*
D13*
X0024450Y0016200D03*
X0024450Y0026200D03*
D14*
X0016546Y0041200D03*
X0009854Y0041200D03*
D15*
X0014942Y0057765D03*
X0024942Y0057765D03*
X0034942Y0057765D03*
D16*
X0047078Y0054448D02*
X0053015Y0054448D01*
X0053015Y0046574D02*
X0047078Y0046574D01*
X0047078Y0038700D02*
X0053015Y0038700D01*
X0053015Y0030826D02*
X0047078Y0030826D01*
X0047078Y0022952D02*
X0053015Y0022952D01*
X0053015Y0015078D02*
X0047078Y0015078D01*
X0047078Y0062322D02*
X0053015Y0062322D01*
X0053015Y0070196D02*
X0047078Y0070196D01*
X0104133Y0070196D02*
X0110070Y0070196D01*
X0110070Y0062322D02*
X0104133Y0062322D01*
X0104133Y0054448D02*
X0110070Y0054448D01*
X0110070Y0046574D02*
X0104133Y0046574D01*
X0104133Y0038700D02*
X0110070Y0038700D01*
X0110070Y0030826D02*
X0104133Y0030826D01*
X0104133Y0022952D02*
X0110070Y0022952D01*
X0110070Y0015078D02*
X0104133Y0015078D01*
D17*
X0099950Y0094342D03*
X0090107Y0094342D03*
X0090107Y0112058D03*
X0099950Y0112058D03*
X0109793Y0112058D03*
X0109793Y0094342D03*
D18*
X0105856Y0103200D03*
X0094044Y0103200D03*
D19*
X0094391Y0122607D03*
X0096950Y0122607D03*
X0099509Y0122607D03*
X0102068Y0122607D03*
X0091832Y0122607D03*
D20*
X0084745Y0123100D03*
X0109155Y0123100D03*
D21*
X0111911Y0133139D03*
X0101674Y0133139D03*
X0092226Y0133139D03*
X0081989Y0133139D03*
D22*
X0071655Y0114950D03*
D23*
X0047245Y0114950D03*
X0047245Y0124005D03*
X0047245Y0105895D03*
M02*
