G75*
%MOIN*%
%OFA0B0*%
%FSLAX25Y25*%
%IPPOS*%
%LPD*%
%AMOC8*
5,1,8,0,0,1.08239X$1,22.5*
%
%ADD10R,0.03950X0.05524*%
%ADD11R,0.05524X0.03950*%
%ADD12R,0.04737X0.05131*%
%ADD13C,0.08200*%
%ADD14R,0.05131X0.04737*%
%ADD15OC8,0.05556*%
%ADD16C,0.06737*%
%ADD17R,0.06706X0.06706*%
%ADD18C,0.04343*%
%ADD19R,0.02375X0.06115*%
%ADD20R,0.09068X0.07099*%
%ADD21R,0.08280X0.07887*%
%ADD22R,0.09461X0.14580*%
%ADD23R,0.09461X0.05524*%
D10*
X0183707Y0154750D03*
X0190793Y0154750D03*
D11*
X0166125Y0175957D03*
X0166125Y0183043D03*
D12*
X0162250Y0105596D03*
X0152250Y0105596D03*
X0152250Y0098904D03*
X0162250Y0098904D03*
D13*
X0152250Y0076000D03*
X0152250Y0086000D03*
D14*
X0144346Y0101000D03*
X0137654Y0101000D03*
D15*
X0142742Y0117565D03*
X0152742Y0117565D03*
X0162742Y0117565D03*
D16*
X0174878Y0114248D02*
X0180815Y0114248D01*
X0180815Y0106374D02*
X0174878Y0106374D01*
X0174878Y0098500D02*
X0180815Y0098500D01*
X0180815Y0090626D02*
X0174878Y0090626D01*
X0174878Y0082752D02*
X0180815Y0082752D01*
X0180815Y0074878D02*
X0174878Y0074878D01*
X0231933Y0074878D02*
X0237870Y0074878D01*
X0237870Y0082752D02*
X0231933Y0082752D01*
X0231933Y0090626D02*
X0237870Y0090626D01*
X0237870Y0098500D02*
X0231933Y0098500D01*
X0231933Y0106374D02*
X0237870Y0106374D01*
X0237870Y0114248D02*
X0231933Y0114248D01*
X0231933Y0122122D02*
X0237870Y0122122D01*
X0237870Y0129996D02*
X0231933Y0129996D01*
X0180815Y0129996D02*
X0174878Y0129996D01*
X0174878Y0122122D02*
X0180815Y0122122D01*
D17*
X0217907Y0154142D03*
X0227750Y0154142D03*
X0237593Y0154142D03*
X0237593Y0171858D03*
X0227750Y0171858D03*
X0217907Y0171858D03*
D18*
X0221844Y0163000D03*
X0233656Y0163000D03*
D19*
X0229868Y0182407D03*
X0227309Y0182407D03*
X0224750Y0182407D03*
X0222191Y0182407D03*
X0219632Y0182407D03*
D20*
X0212545Y0182900D03*
X0236955Y0182900D03*
D21*
X0239711Y0192939D03*
X0229474Y0192939D03*
X0220026Y0192939D03*
X0209789Y0192939D03*
D22*
X0199455Y0174750D03*
D23*
X0175045Y0174750D03*
X0175045Y0183805D03*
X0175045Y0165695D03*
M02*
