G75*
%MOIN*%
%OFA0B0*%
%FSLAX25Y25*%
%IPPOS*%
%LPD*%
%AMOC8*
5,1,8,0,0,1.08239X$1,22.5*
%
%ADD10C,0.00600*%
%ADD11OC8,0.05200*%
%ADD12C,0.05937*%
%ADD13C,0.00400*%
%ADD14C,0.07500*%
%ADD15C,0.00200*%
%ADD16C,0.06299*%
%ADD17R,0.01575X0.05315*%
%ADD18R,0.08268X0.06299*%
%ADD19R,0.07480X0.07087*%
%ADD20C,0.00100*%
%ADD21C,0.01600*%
%ADD22C,0.02835*%
%ADD23C,0.03200*%
%ADD24C,0.02400*%
%ADD25C,0.02362*%
D10*
X0032300Y0021100D02*
X0035503Y0021100D01*
X0036570Y0022168D01*
X0036570Y0023235D01*
X0035503Y0024303D01*
X0032300Y0024303D01*
X0032300Y0027505D02*
X0032300Y0021100D01*
X0035503Y0024303D02*
X0036570Y0025370D01*
X0036570Y0026438D01*
X0035503Y0027505D01*
X0032300Y0027505D01*
X0038745Y0027505D02*
X0038745Y0021100D01*
X0041948Y0021100D01*
X0043016Y0022168D01*
X0043016Y0023235D01*
X0041948Y0024303D01*
X0038745Y0024303D01*
X0038745Y0027505D02*
X0041948Y0027505D01*
X0043016Y0026438D01*
X0043016Y0025370D01*
X0041948Y0024303D01*
D11*
X0018000Y0098800D03*
X0008000Y0098800D03*
X0038000Y0131800D03*
X0048000Y0131800D03*
X0065000Y0130800D03*
X0075000Y0130800D03*
X0018000Y0163800D03*
X0008000Y0163800D03*
D12*
X0032409Y0097296D02*
X0038346Y0097296D01*
X0038346Y0089422D02*
X0032409Y0089422D01*
X0032409Y0081548D02*
X0038346Y0081548D01*
X0038346Y0073674D02*
X0032409Y0073674D01*
X0032409Y0065800D02*
X0038346Y0065800D01*
X0038346Y0057926D02*
X0032409Y0057926D01*
X0032409Y0050052D02*
X0038346Y0050052D01*
X0038346Y0042178D02*
X0032409Y0042178D01*
X0095402Y0042178D02*
X0101339Y0042178D01*
X0101339Y0050052D02*
X0095402Y0050052D01*
X0095402Y0057926D02*
X0101339Y0057926D01*
X0101339Y0065800D02*
X0095402Y0065800D01*
X0095402Y0073674D02*
X0101339Y0073674D01*
X0101339Y0081548D02*
X0095402Y0081548D01*
X0095402Y0089422D02*
X0101339Y0089422D01*
X0101339Y0097296D02*
X0095402Y0097296D01*
D13*
X0087013Y0106885D02*
X0090083Y0109955D01*
X0090083Y0110722D01*
X0087013Y0110722D01*
X0085479Y0109955D02*
X0085479Y0106885D01*
X0084711Y0106118D01*
X0083177Y0106118D01*
X0082409Y0106885D01*
X0085479Y0109955D01*
X0084711Y0110722D01*
X0083177Y0110722D01*
X0082409Y0109955D01*
X0082409Y0106885D01*
X0080875Y0108420D02*
X0077805Y0108420D01*
X0076271Y0107653D02*
X0075503Y0108420D01*
X0073202Y0108420D01*
X0073202Y0106885D01*
X0073969Y0106118D01*
X0075503Y0106118D01*
X0076271Y0106885D01*
X0076271Y0107653D01*
X0074736Y0109955D02*
X0073202Y0108420D01*
X0071667Y0107653D02*
X0070900Y0108420D01*
X0068598Y0108420D01*
X0068598Y0106885D01*
X0069365Y0106118D01*
X0070900Y0106118D01*
X0071667Y0106885D01*
X0071667Y0107653D01*
X0070132Y0109955D02*
X0068598Y0108420D01*
X0067063Y0109187D02*
X0067063Y0109955D01*
X0066296Y0110722D01*
X0064761Y0110722D01*
X0063994Y0109955D01*
X0062459Y0109955D02*
X0062459Y0109187D01*
X0061692Y0108420D01*
X0060157Y0108420D01*
X0059390Y0109187D01*
X0059390Y0109955D01*
X0060157Y0110722D01*
X0061692Y0110722D01*
X0062459Y0109955D01*
X0061692Y0108420D02*
X0062459Y0107653D01*
X0062459Y0106885D01*
X0061692Y0106118D01*
X0060157Y0106118D01*
X0059390Y0106885D01*
X0059390Y0107653D01*
X0060157Y0108420D01*
X0057855Y0108420D02*
X0057088Y0107653D01*
X0054786Y0107653D01*
X0053251Y0107653D02*
X0053251Y0106885D01*
X0052484Y0106118D01*
X0050949Y0106118D01*
X0050182Y0106885D01*
X0048647Y0106118D02*
X0045578Y0106118D01*
X0045578Y0110722D01*
X0048647Y0110722D01*
X0050182Y0109955D02*
X0050182Y0109187D01*
X0050949Y0108420D01*
X0052484Y0108420D01*
X0053251Y0107653D01*
X0054786Y0106118D02*
X0054786Y0110722D01*
X0057088Y0110722D01*
X0057855Y0109955D01*
X0057855Y0108420D01*
X0053251Y0109955D02*
X0052484Y0110722D01*
X0050949Y0110722D01*
X0050182Y0109955D01*
X0047113Y0108420D02*
X0045578Y0108420D01*
X0063994Y0106118D02*
X0067063Y0109187D01*
X0067063Y0106118D02*
X0063994Y0106118D01*
X0070132Y0109955D02*
X0071667Y0110722D01*
X0074736Y0109955D02*
X0076271Y0110722D01*
X0087013Y0106885D02*
X0087013Y0106118D01*
D14*
X0038000Y0153800D03*
X0038000Y0163800D03*
X0038000Y0173800D03*
D15*
X0098098Y0173371D02*
X0098098Y0172637D01*
X0098465Y0172270D01*
X0098832Y0172270D01*
X0099199Y0172637D01*
X0099199Y0173738D01*
X0098465Y0173738D02*
X0098098Y0173371D01*
X0098465Y0173738D02*
X0099933Y0173738D01*
X0100300Y0173371D01*
X0100300Y0172637D01*
X0099933Y0172270D01*
X0099933Y0171528D02*
X0100300Y0171161D01*
X0100300Y0170427D01*
X0099933Y0170060D01*
X0100300Y0169318D02*
X0098098Y0169318D01*
X0098832Y0168585D01*
X0098098Y0167851D01*
X0100300Y0167851D01*
X0100300Y0167109D02*
X0100300Y0165641D01*
X0098098Y0165641D01*
X0098465Y0170060D02*
X0098098Y0170427D01*
X0098098Y0171161D01*
X0098465Y0171528D01*
X0098832Y0171528D01*
X0099199Y0171161D01*
X0099566Y0171528D01*
X0099933Y0171528D01*
X0099199Y0171161D02*
X0099199Y0170794D01*
X0099199Y0174480D02*
X0098098Y0175581D01*
X0100300Y0175581D01*
X0099199Y0175948D02*
X0099199Y0174480D01*
X0098465Y0176690D02*
X0098098Y0177057D01*
X0098098Y0177791D01*
X0098465Y0178158D01*
X0099933Y0176690D01*
X0100300Y0177057D01*
X0100300Y0177791D01*
X0099933Y0178158D01*
X0098465Y0178158D01*
X0098465Y0176690D02*
X0099933Y0176690D01*
X0103098Y0137658D02*
X0103465Y0136924D01*
X0104199Y0136190D01*
X0104199Y0137291D01*
X0104566Y0137658D01*
X0104933Y0137658D01*
X0105300Y0137291D01*
X0105300Y0136557D01*
X0104933Y0136190D01*
X0104199Y0136190D01*
X0104199Y0135448D02*
X0104199Y0133980D01*
X0103098Y0135081D01*
X0105300Y0135081D01*
X0105300Y0133238D02*
X0105300Y0131770D01*
X0103832Y0133238D01*
X0103465Y0133238D01*
X0103098Y0132871D01*
X0103098Y0132137D01*
X0103465Y0131770D01*
X0103465Y0131028D02*
X0103098Y0130661D01*
X0103098Y0129927D01*
X0103465Y0129560D01*
X0103832Y0129560D01*
X0104199Y0129927D01*
X0104199Y0131028D01*
X0104933Y0131028D02*
X0103465Y0131028D01*
X0104933Y0131028D02*
X0105300Y0130661D01*
X0105300Y0129927D01*
X0104933Y0129560D01*
X0105300Y0128818D02*
X0103098Y0128818D01*
X0104199Y0128818D02*
X0104199Y0127351D01*
X0104199Y0126609D02*
X0104199Y0125141D01*
X0103832Y0125141D02*
X0103098Y0125875D01*
X0103832Y0126609D01*
X0105300Y0126609D01*
X0105300Y0127351D02*
X0103098Y0127351D01*
X0103832Y0125141D02*
X0105300Y0125141D01*
D16*
X0093000Y0124550D03*
X0089516Y0130800D03*
X0093000Y0137050D03*
D17*
X0072118Y0024643D03*
X0069559Y0024643D03*
X0067000Y0024643D03*
X0064441Y0024643D03*
X0061882Y0024643D03*
D18*
X0054795Y0024150D03*
X0079205Y0024150D03*
D19*
X0081961Y0014111D03*
X0071724Y0014111D03*
X0062276Y0014111D03*
X0052039Y0014111D03*
D20*
X0060666Y0019050D02*
X0060666Y0020551D01*
X0061166Y0020051D01*
X0061667Y0020551D01*
X0061667Y0019050D01*
X0062139Y0019050D02*
X0062640Y0019050D01*
X0062389Y0019050D02*
X0062389Y0020551D01*
X0062139Y0020551D02*
X0062640Y0020551D01*
X0063121Y0020301D02*
X0063121Y0019300D01*
X0063372Y0019050D01*
X0063872Y0019050D01*
X0064122Y0019300D01*
X0064595Y0019050D02*
X0064595Y0020551D01*
X0065345Y0020551D01*
X0065595Y0020301D01*
X0065595Y0019801D01*
X0065345Y0019550D01*
X0064595Y0019550D01*
X0065095Y0019550D02*
X0065595Y0019050D01*
X0066068Y0019300D02*
X0066318Y0019050D01*
X0066818Y0019050D01*
X0067069Y0019300D01*
X0067069Y0020301D01*
X0066818Y0020551D01*
X0066318Y0020551D01*
X0066068Y0020301D01*
X0066068Y0019300D01*
X0064122Y0020301D02*
X0063872Y0020551D01*
X0063372Y0020551D01*
X0063121Y0020301D01*
X0069014Y0020551D02*
X0069014Y0019300D01*
X0069265Y0019050D01*
X0069765Y0019050D01*
X0070015Y0019300D01*
X0070015Y0020551D01*
X0070488Y0020301D02*
X0070488Y0020051D01*
X0070738Y0019801D01*
X0071238Y0019801D01*
X0071488Y0019550D01*
X0071488Y0019300D01*
X0071238Y0019050D01*
X0070738Y0019050D01*
X0070488Y0019300D01*
X0070488Y0020301D02*
X0070738Y0020551D01*
X0071238Y0020551D01*
X0071488Y0020301D01*
X0071961Y0020551D02*
X0072711Y0020551D01*
X0072962Y0020301D01*
X0072962Y0020051D01*
X0072711Y0019801D01*
X0071961Y0019801D01*
X0071961Y0020551D02*
X0071961Y0019050D01*
X0072711Y0019050D01*
X0072962Y0019300D01*
X0072962Y0019550D01*
X0072711Y0019801D01*
D21*
X0069559Y0024643D02*
X0069559Y0089422D01*
X0098370Y0089422D01*
X0098370Y0097296D02*
X0067000Y0097296D01*
X0067000Y0024643D01*
X0064441Y0024643D02*
X0064441Y0065800D01*
D22*
X0064441Y0065800D03*
D23*
X0028695Y0035300D02*
X0025541Y0038454D01*
X0025541Y0161341D01*
X0038000Y0173800D01*
X0038000Y0153800D02*
X0076250Y0153800D01*
X0093000Y0137050D01*
X0058000Y0035300D02*
X0028695Y0035300D01*
D24*
X0061882Y0042300D02*
X0061882Y0024643D01*
X0072118Y0024643D02*
X0072118Y0035300D01*
D25*
X0072118Y0035300D03*
X0061882Y0042300D03*
X0058000Y0035300D03*
M02*
