G75*
%MOIN*%
%OFA0B0*%
%FSLAX25Y25*%
%IPPOS*%
%LPD*%
%AMOC8*
5,1,8,0,0,1.08239X$1,22.5*
%
%ADD10C,0.05937*%
%ADD11C,0.03962*%
%ADD12C,0.02000*%
D10*
X0012478Y0055510D02*
X0018415Y0055510D01*
X0018415Y0063384D02*
X0012478Y0063384D01*
X0012478Y0071258D02*
X0018415Y0071258D01*
X0018415Y0079132D02*
X0012478Y0079132D01*
X0012478Y0087006D02*
X0018415Y0087006D01*
X0018415Y0094880D02*
X0012478Y0094880D01*
X0012478Y0102754D02*
X0018415Y0102754D01*
X0018415Y0110628D02*
X0012478Y0110628D01*
X0069533Y0110628D02*
X0075470Y0110628D01*
X0075470Y0102754D02*
X0069533Y0102754D01*
X0069533Y0094880D02*
X0075470Y0094880D01*
X0075470Y0087006D02*
X0069533Y0087006D01*
X0069533Y0079132D02*
X0075470Y0079132D01*
X0075470Y0071258D02*
X0069533Y0071258D01*
X0069533Y0063384D02*
X0075470Y0063384D01*
X0075470Y0055510D02*
X0069533Y0055510D01*
D11*
X0083600Y0026632D03*
X0039600Y0059132D03*
X0033600Y0059132D03*
X0027600Y0059132D03*
X0027600Y0034632D03*
X0033600Y0034632D03*
X0020994Y0034632D03*
D12*
X0025494Y0030132D01*
X0035600Y0030132D01*
X0039600Y0034132D01*
X0039600Y0059132D01*
X0033600Y0059132D02*
X0033600Y0034632D01*
X0027600Y0034632D02*
X0027600Y0059132D01*
X0012478Y0063384D02*
X0046848Y0063384D01*
X0083600Y0026632D01*
M02*
