%
M48
M72
T01C0.02362
T02C0.03937
%
T01
X20994Y34632
X27600Y34632
X33600Y34632
X33600Y59132
X27600Y59132
X39600Y59132
X83600Y26632
T02
X75470Y55510
X75470Y63384
X75470Y71258
X75470Y79132
X75470Y87006
X75470Y94880
X75470Y102754
X75470Y110628
X12478Y110628
X12478Y102754
X12478Y94880
X12478Y87006
X12478Y79132
X12478Y71258
X12478Y63384
X12478Y55510
M30
