G75*
%MOIN*%
%OFA0B0*%
%FSLAX25Y25*%
%IPPOS*%
%LPD*%
%AMOC8*
5,1,8,0,0,1.08239X$1,22.5*
%
%ADD10R,0.03950X0.05524*%
%ADD11C,0.06737*%
%ADD12R,0.04737X0.03950*%
%ADD13R,0.02375X0.06115*%
%ADD14R,0.09068X0.07099*%
%ADD15R,0.08280X0.07887*%
%ADD16R,0.09461X0.14580*%
%ADD17R,0.09461X0.05524*%
%ADD18C,0.04762*%
D10*
X0055057Y0009132D03*
X0062143Y0009132D03*
X0070057Y0014132D03*
X0077143Y0014132D03*
X0077143Y0039132D03*
X0070057Y0039132D03*
X0062143Y0044132D03*
X0055057Y0044132D03*
D11*
X0069533Y0055510D02*
X0075470Y0055510D01*
X0075470Y0063384D02*
X0069533Y0063384D01*
X0069533Y0071258D02*
X0075470Y0071258D01*
X0075470Y0079132D02*
X0069533Y0079132D01*
X0069533Y0087006D02*
X0075470Y0087006D01*
X0075470Y0094880D02*
X0069533Y0094880D01*
X0069533Y0102754D02*
X0075470Y0102754D01*
X0075470Y0110628D02*
X0069533Y0110628D01*
X0018415Y0110628D02*
X0012478Y0110628D01*
X0012478Y0102754D02*
X0018415Y0102754D01*
X0018415Y0094880D02*
X0012478Y0094880D01*
X0012478Y0087006D02*
X0018415Y0087006D01*
X0018415Y0079132D02*
X0012478Y0079132D01*
X0012478Y0071258D02*
X0018415Y0071258D01*
X0018415Y0063384D02*
X0012478Y0063384D01*
X0012478Y0055510D02*
X0018415Y0055510D01*
D12*
X0078600Y0030372D03*
X0078600Y0022892D03*
X0088049Y0026632D03*
D13*
X0026218Y0018474D03*
X0023659Y0018474D03*
X0021100Y0018474D03*
X0018541Y0018474D03*
X0015982Y0018474D03*
D14*
X0008895Y0017982D03*
X0033305Y0017982D03*
D15*
X0006139Y0007943D03*
X0016376Y0007943D03*
X0025824Y0007943D03*
X0036061Y0007943D03*
D16*
X0070805Y0026632D03*
D17*
X0046395Y0026632D03*
X0046395Y0035687D03*
X0046395Y0017577D03*
D18*
X0033600Y0034632D03*
X0027600Y0034632D03*
X0020994Y0034632D03*
X0027600Y0059132D03*
X0033600Y0059132D03*
X0039600Y0059132D03*
X0083600Y0026632D03*
M02*
